<?xml version="1.0" encoding="us-ascii" standalone="no"?><svg xmlns="http://www.w3.org/2000/svg" xmlns:xlink="http://www.w3.org/1999/xlink" contentStyleType="text/css" height="468px" preserveAspectRatio="none" style="width:630px;height:468px;background:#FFFFFF;" version="1.1" viewBox="0 0 630 468" width="630px" zoomAndPan="magnify"><defs/><g><text fill="#000000" font-family="sans-serif" font-size="14" font-weight="bold" lengthAdjust="spacing" textLength="377" x="119.5" y="24.5332">Web Camera Activity at HandLandmarkerRunner Class</text><ellipse cx="225" cy="54.6094" fill="#222222" rx="10" ry="10" style="stroke:#222222;stroke-width:1.0;"/><rect fill="#F1F1F1" height="50.1875" rx="12.5" ry="12.5" style="stroke:#181818;stroke-width:0.5;" width="255" x="97.5" y="105.6094"/><text fill="#000000" font-family="sans-serif" font-size="12" lengthAdjust="spacing" textLength="195" x="107.5" y="128.0664">Receives an ImageSource instance</text><text fill="#000000" font-family="sans-serif" font-size="12" lengthAdjust="spacing" textLength="232" x="110.5" y="143.1602">from the static class ImageSourceProvider</text><g id="elem_GN5"><path d="M373,109.1094 L373,126.6094 L352.7,130.6094 L373,134.6094 L373,151.8125 A0,0 0 0 0 373,151.8125 L623,151.8125 A0,0 0 0 0 623,151.8125 L623,119.1094 L613,109.1094 L373,109.1094 A0,0 0 0 0 373,109.1094 " fill="#FEFFDD" style="stroke:#181818;stroke-width:0.5;"/><path d="M613,109.1094 L613,119.1094 L623,119.1094 L613,109.1094 " fill="#FEFFDD" style="stroke:#181818;stroke-width:0.5;"/><text fill="#000000" font-family="sans-serif" font-size="13" lengthAdjust="spacing" textLength="225" x="379" y="127.6045">Actually, it is passed WebCamSource,</text><text fill="#000000" font-family="sans-serif" font-size="13" lengthAdjust="spacing" textLength="192" x="379" y="143.9561">which inherits from ImageSource.</text></g><rect fill="#F1F1F1" height="35.0938" rx="12.5" ry="12.5" style="stroke:#181818;stroke-width:0.5;" width="217" x="116.5" y="196.6094"/><text fill="#000000" font-family="sans-serif" font-size="12" lengthAdjust="spacing" textLength="197" x="126.5" y="219.0664">Initialize Screen by screen.Initialize()</text><g id="elem_#10"><polygon fill="#F1F1F1" points="225,272.6094,237,284.6094,225,296.6094,213,284.6094,225,272.6094" style="stroke:#181818;stroke-width:0.5;"/></g><rect fill="#F1F1F1" height="35.0938" rx="12.5" ry="12.5" style="stroke:#181818;stroke-width:0.5;" width="208" x="7" y="351.6094"/><text fill="#000000" font-family="sans-serif" font-size="12" lengthAdjust="spacing" textLength="188" x="17" y="374.0664">Obtain a source image using GPU</text><rect fill="#F1F1F1" height="35.0938" rx="12.5" ry="12.5" style="stroke:#181818;stroke-width:0.5;" width="167" x="140.5" y="427.6094"/><text fill="#000000" font-family="sans-serif" font-size="12" lengthAdjust="spacing" textLength="147" x="150.5" y="450.0664">Detect using DetectAsync()</text><rect fill="#F1F1F1" height="35.0938" rx="12.5" ry="12.5" style="stroke:#181818;stroke-width:0.5;" width="208" x="235" y="351.6094"/><text fill="#000000" font-family="sans-serif" font-size="12" lengthAdjust="spacing" textLength="188" x="245" y="374.0664">Obtain a source image using CPU</text><!--link start to Receives an ImageSource instance \n from the static class ImageSourceProvider--><g id="link_start_Receives an ImageSource instance \n from the static class ImageSourceProvider"><path d="M225,64.6794 C225,74.7994 225,85.5594 225,99.5194 " fill="none" id="start-to-Receives an ImageSource instance \n from the static class ImageSourceProvider" style="stroke:#181818;stroke-width:1.0;"/><polygon fill="#181818" points="225,105.5194,229,96.5194,225,100.5194,221,96.5194,225,105.5194" style="stroke:#181818;stroke-width:1.0;"/></g><!--link Receives an ImageSource instance \n from the static class ImageSourceProvider to Initialize Screen by screen.Initialize()--><g id="link_Receives an ImageSource instance \n from the static class ImageSourceProvider_Initialize Screen by screen.Initialize()"><path d="M225,155.6194 C225,168.7694 225,178.7294 225,190.4894 " fill="none" id="Receives an ImageSource instance \n from the static class ImageSourceProvider-to-Initialize Screen by screen.Initialize()" style="stroke:#181818;stroke-width:1.0;"/><polygon fill="#181818" points="225,196.4894,229,187.4894,225,191.4894,221,187.4894,225,196.4894" style="stroke:#181818;stroke-width:1.0;"/></g><!--link Initialize Screen by screen.Initialize() to #10--><g id="link_Initialize Screen by screen.Initialize()_#10"><path d="M225,231.6894 C225,244.3594 225,255.4794 225,266.5294 " fill="none" id="Initialize Screen by screen.Initialize()-to-#10" style="stroke:#181818;stroke-width:1.0;"/><polygon fill="#181818" points="225,272.5294,229,263.5294,225,267.5294,221,263.5294,225,272.5294" style="stroke:#181818;stroke-width:1.0;"/><text fill="#000000" font-family="sans-serif" font-size="11" lengthAdjust="spacing" textLength="58" x="152.8625" y="262.0943">canUseGPU</text></g><!--link #10 to Obtain a source image using GPU--><g id="link_#10_Obtain a source image using GPU"><path d="M218.54,290.2794 C202.53,301.8694 165.2206,328.8717 138.6906,348.0717 " fill="none" id="#10-to-Obtain a source image using GPU" style="stroke:#181818;stroke-width:1.0;"/><polygon fill="#181818" points="133.83,351.5894,143.4661,349.5533,137.8805,348.658,138.7758,343.0724,133.83,351.5894" style="stroke:#181818;stroke-width:1.0;"/><text fill="#000000" font-family="sans-serif" font-size="11" lengthAdjust="spacing" textLength="19" x="183" y="329.0283">true</text></g><!--link Obtain a source image using GPU to Detect using DetectAsync()--><g id="link_Obtain a source image using GPU_Detect using DetectAsync()"><path d="M136.36,386.7194 C154.97,398.8994 175.1105,412.0924 193.7105,424.2724 " fill="none" id="Obtain a source image using GPU-to-Detect using DetectAsync()" style="stroke:#181818;stroke-width:1.0;"/><polygon fill="#181818" points="198.73,427.5594,193.392,419.2825,194.5471,424.8202,189.0094,425.9753,198.73,427.5594" style="stroke:#181818;stroke-width:1.0;"/></g><!--link #10 to Obtain a source image using CPU--><g id="link_#10_Obtain a source image using CPU"><path d="M231.46,290.2794 C247.47,301.8694 284.7794,328.8717 311.3094,348.0717 " fill="none" id="#10-to-Obtain a source image using CPU" style="stroke:#181818;stroke-width:1.0;"/><polygon fill="#181818" points="316.17,351.5894,311.2242,343.0724,312.1195,348.658,306.5339,349.5533,316.17,351.5894" style="stroke:#181818;stroke-width:1.0;"/><text fill="#000000" font-family="sans-serif" font-size="11" lengthAdjust="spacing" textLength="24" x="286" y="329.0283">false</text></g><!--link Obtain a source image using CPU to Detect using DetectAsync()--><g id="link_Obtain a source image using CPU_Detect using DetectAsync()"><path d="M313.19,386.7194 C294.25,398.8994 273.685,412.1316 254.765,424.3116 " fill="none" id="Obtain a source image using CPU-to-Detect using DetectAsync()" style="stroke:#181818;stroke-width:1.0;"/><polygon fill="#181818" points="249.72,427.5594,259.4527,426.051,253.9242,424.8529,255.1223,419.3244,249.72,427.5594" style="stroke:#181818;stroke-width:1.0;"/></g><!--SRC=[ZOz1IyD048Nl-olUiPMsFy23K29eGR2q50_gORgP98F9H7OdAV7NksagzYGU5jxEpllUMnEh6IzyH4OD1yBQc_HY0yZmI9e_fTDG-E2mwrGv8AifHZWtkvbZcRSdNTvXnvwbvmXIR1egUTzsmJD4ev4cyQOeGjl0AaOQcNZuC-TgUnlQNd8EpcbhZ21bPRWT2tLKryC2Of28psJZVAoS6a_EHUAVAl5L2gmuYCKfxGg-Skwdx4R5X6hvOknzO5OS1yIpMls-pUREIG5FUeZyi3sCrHKEoqHujT3nEvwFHg8WnCjlnpXqKRH4SaoxzspixJATBkiug4zyhYDVW0Kb_JSn-mzHSodSDm00]--></g></svg>