<?xml version="1.0" encoding="us-ascii" standalone="no"?><svg xmlns="http://www.w3.org/2000/svg" xmlns:xlink="http://www.w3.org/1999/xlink" contentStyleType="text/css" height="2008px" preserveAspectRatio="none" style="width:1825px;height:2008px;background:#FFFFFF;" version="1.1" viewBox="0 0 1825 2008" width="1825px" zoomAndPan="magnify"><defs/><g><text fill="#000000" font-family="sans-serif" font-size="14" font-weight="bold" lengthAdjust="spacing" textLength="284" x="763.935" y="24.5332">MediaPipe Unity Plugin HandLandmarker</text><!--class Object--><g id="elem_Object"><rect fill="#F1F1F1" height="32" id="Object" rx="2.5" ry="2.5" style="stroke:#181818;stroke-width:0.5;" width="73" x="710" y="45.6094"/><ellipse cx="725" cy="61.6094" fill="#ADD1B2" rx="11" ry="11" style="stroke:#181818;stroke-width:1.0;"/><path d="M727.7656,57.4844 Q727.9219,57.2656 728.1094,57.1563 Q728.2969,57.0469 728.5156,57.0469 Q728.8906,57.0469 729.125,57.3125 Q729.3594,57.5625 729.3594,58.1719 L729.3594,59.625 Q729.3594,60.2344 729.125,60.5 Q728.8906,60.7656 728.5156,60.7656 Q728.1719,60.7656 727.9688,60.5625 Q727.7656,60.375 727.6563,59.8594 Q727.6094,59.5 727.4219,59.3125 Q727.0938,58.9375 726.4844,58.7188 Q725.875,58.5 725.25,58.5 Q724.4844,58.5 723.8438,58.8281 Q723.2188,59.1563 722.7188,59.9063 Q722.2344,60.6563 722.2344,61.6875 L722.2344,62.7813 Q722.2344,64.0156 723.125,64.8438 Q724.0156,65.6563 725.6094,65.6563 Q726.5469,65.6563 727.2031,65.4063 Q727.5938,65.25 728.0156,64.8125 Q728.2813,64.5469 728.4219,64.4688 Q728.5781,64.3906 728.7813,64.3906 Q729.1094,64.3906 729.3594,64.6563 Q729.625,64.9063 729.625,65.25 Q729.625,65.5938 729.2813,66 Q728.7813,66.5781 727.9844,66.9063 Q726.9063,67.3594 725.6094,67.3594 Q724.0938,67.3594 722.8906,66.7344 Q721.9063,66.2344 721.2188,65.1719 Q720.5313,64.0938 720.5313,62.8125 L720.5313,61.6563 Q720.5313,60.3281 721.1406,59.1875 Q721.7656,58.0313 722.8594,57.4219 Q723.9531,56.7969 725.1875,56.7969 Q725.9219,56.7969 726.5625,56.9688 Q727.2188,57.125 727.7656,57.4844 Z " fill="#000000"/><text fill="#000000" font-family="sans-serif" font-size="14" lengthAdjust="spacing" textLength="41" x="739" y="67.3379">Object</text></g><!--class Component--><g id="elem_Component"><rect fill="#F1F1F1" height="32" id="Component" rx="2.5" ry="2.5" style="stroke:#181818;stroke-width:0.5;" width="105" x="616" y="137.6094"/><ellipse cx="631" cy="153.6094" fill="#ADD1B2" rx="11" ry="11" style="stroke:#181818;stroke-width:1.0;"/><path d="M633.7656,149.4844 Q633.9219,149.2656 634.1094,149.1563 Q634.2969,149.0469 634.5156,149.0469 Q634.8906,149.0469 635.125,149.3125 Q635.3594,149.5625 635.3594,150.1719 L635.3594,151.625 Q635.3594,152.2344 635.125,152.5 Q634.8906,152.7656 634.5156,152.7656 Q634.1719,152.7656 633.9688,152.5625 Q633.7656,152.375 633.6563,151.8594 Q633.6094,151.5 633.4219,151.3125 Q633.0938,150.9375 632.4844,150.7188 Q631.875,150.5 631.25,150.5 Q630.4844,150.5 629.8438,150.8281 Q629.2188,151.1563 628.7188,151.9063 Q628.2344,152.6563 628.2344,153.6875 L628.2344,154.7813 Q628.2344,156.0156 629.125,156.8438 Q630.0156,157.6563 631.6094,157.6563 Q632.5469,157.6563 633.2031,157.4063 Q633.5938,157.25 634.0156,156.8125 Q634.2813,156.5469 634.4219,156.4688 Q634.5781,156.3906 634.7813,156.3906 Q635.1094,156.3906 635.3594,156.6563 Q635.625,156.9063 635.625,157.25 Q635.625,157.5938 635.2813,158 Q634.7813,158.5781 633.9844,158.9063 Q632.9063,159.3594 631.6094,159.3594 Q630.0938,159.3594 628.8906,158.7344 Q627.9063,158.2344 627.2188,157.1719 Q626.5313,156.0938 626.5313,154.8125 L626.5313,153.6563 Q626.5313,152.3281 627.1406,151.1875 Q627.7656,150.0313 628.8594,149.4219 Q629.9531,148.7969 631.1875,148.7969 Q631.9219,148.7969 632.5625,148.9688 Q633.2188,149.125 633.7656,149.4844 Z " fill="#000000"/><text fill="#000000" font-family="sans-serif" font-size="14" lengthAdjust="spacing" textLength="73" x="645" y="159.3379">Component</text></g><!--class ScriptableObject--><g id="elem_ScriptableObject"><rect fill="#F1F1F1" height="32" id="ScriptableObject" rx="2.5" ry="2.5" style="stroke:#181818;stroke-width:0.5;" width="136" x="773.5" y="137.6094"/><ellipse cx="788.5" cy="153.6094" fill="#ADD1B2" rx="11" ry="11" style="stroke:#181818;stroke-width:1.0;"/><path d="M791.2656,149.4844 Q791.4219,149.2656 791.6094,149.1563 Q791.7969,149.0469 792.0156,149.0469 Q792.3906,149.0469 792.625,149.3125 Q792.8594,149.5625 792.8594,150.1719 L792.8594,151.625 Q792.8594,152.2344 792.625,152.5 Q792.3906,152.7656 792.0156,152.7656 Q791.6719,152.7656 791.4688,152.5625 Q791.2656,152.375 791.1563,151.8594 Q791.1094,151.5 790.9219,151.3125 Q790.5938,150.9375 789.9844,150.7188 Q789.375,150.5 788.75,150.5 Q787.9844,150.5 787.3438,150.8281 Q786.7188,151.1563 786.2188,151.9063 Q785.7344,152.6563 785.7344,153.6875 L785.7344,154.7813 Q785.7344,156.0156 786.625,156.8438 Q787.5156,157.6563 789.1094,157.6563 Q790.0469,157.6563 790.7031,157.4063 Q791.0938,157.25 791.5156,156.8125 Q791.7813,156.5469 791.9219,156.4688 Q792.0781,156.3906 792.2813,156.3906 Q792.6094,156.3906 792.8594,156.6563 Q793.125,156.9063 793.125,157.25 Q793.125,157.5938 792.7813,158 Q792.2813,158.5781 791.4844,158.9063 Q790.4063,159.3594 789.1094,159.3594 Q787.5938,159.3594 786.3906,158.7344 Q785.4063,158.2344 784.7188,157.1719 Q784.0313,156.0938 784.0313,154.8125 L784.0313,153.6563 Q784.0313,152.3281 784.6406,151.1875 Q785.2656,150.0313 786.3594,149.4219 Q787.4531,148.7969 788.6875,148.7969 Q789.4219,148.7969 790.0625,148.9688 Q790.7188,149.125 791.2656,149.4844 Z " fill="#000000"/><text fill="#000000" font-family="sans-serif" font-size="14" lengthAdjust="spacing" textLength="104" x="802.5" y="159.3379">ScriptableObject</text></g><!--class Behaviour--><g id="elem_Behaviour"><rect fill="#F1F1F1" height="32" id="Behaviour" rx="2.5" ry="2.5" style="stroke:#181818;stroke-width:0.5;" width="96" x="585.5" y="242.6094"/><ellipse cx="600.5" cy="258.6094" fill="#ADD1B2" rx="11" ry="11" style="stroke:#181818;stroke-width:1.0;"/><path d="M603.2656,254.4844 Q603.4219,254.2656 603.6094,254.1563 Q603.7969,254.0469 604.0156,254.0469 Q604.3906,254.0469 604.625,254.3125 Q604.8594,254.5625 604.8594,255.1719 L604.8594,256.625 Q604.8594,257.2344 604.625,257.5 Q604.3906,257.7656 604.0156,257.7656 Q603.6719,257.7656 603.4688,257.5625 Q603.2656,257.375 603.1563,256.8594 Q603.1094,256.5 602.9219,256.3125 Q602.5938,255.9375 601.9844,255.7188 Q601.375,255.5 600.75,255.5 Q599.9844,255.5 599.3438,255.8281 Q598.7188,256.1563 598.2188,256.9063 Q597.7344,257.6563 597.7344,258.6875 L597.7344,259.7813 Q597.7344,261.0156 598.625,261.8438 Q599.5156,262.6563 601.1094,262.6563 Q602.0469,262.6563 602.7031,262.4063 Q603.0938,262.25 603.5156,261.8125 Q603.7813,261.5469 603.9219,261.4688 Q604.0781,261.3906 604.2813,261.3906 Q604.6094,261.3906 604.8594,261.6563 Q605.125,261.9063 605.125,262.25 Q605.125,262.5938 604.7813,263 Q604.2813,263.5781 603.4844,263.9063 Q602.4063,264.3594 601.1094,264.3594 Q599.5938,264.3594 598.3906,263.7344 Q597.4063,263.2344 596.7188,262.1719 Q596.0313,261.0938 596.0313,259.8125 L596.0313,258.6563 Q596.0313,257.3281 596.6406,256.1875 Q597.2656,255.0313 598.3594,254.4219 Q599.4531,253.7969 600.6875,253.7969 Q601.4219,253.7969 602.0625,253.9688 Q602.7188,254.125 603.2656,254.4844 Z " fill="#000000"/><text fill="#000000" font-family="sans-serif" font-size="14" lengthAdjust="spacing" textLength="64" x="614.5" y="264.3379">Behaviour</text></g><!--class MonoBehaviour--><g id="elem_MonoBehaviour"><rect fill="#F1F1F1" height="32" id="MonoBehaviour" rx="2.5" ry="2.5" style="stroke:#181818;stroke-width:0.5;" width="131" x="510" y="347.6094"/><ellipse cx="525" cy="363.6094" fill="#ADD1B2" rx="11" ry="11" style="stroke:#181818;stroke-width:1.0;"/><path d="M527.7656,359.4844 Q527.9219,359.2656 528.1094,359.1563 Q528.2969,359.0469 528.5156,359.0469 Q528.8906,359.0469 529.125,359.3125 Q529.3594,359.5625 529.3594,360.1719 L529.3594,361.625 Q529.3594,362.2344 529.125,362.5 Q528.8906,362.7656 528.5156,362.7656 Q528.1719,362.7656 527.9688,362.5625 Q527.7656,362.375 527.6563,361.8594 Q527.6094,361.5 527.4219,361.3125 Q527.0938,360.9375 526.4844,360.7188 Q525.875,360.5 525.25,360.5 Q524.4844,360.5 523.8438,360.8281 Q523.2188,361.1563 522.7188,361.9063 Q522.2344,362.6563 522.2344,363.6875 L522.2344,364.7813 Q522.2344,366.0156 523.125,366.8438 Q524.0156,367.6563 525.6094,367.6563 Q526.5469,367.6563 527.2031,367.4063 Q527.5938,367.25 528.0156,366.8125 Q528.2813,366.5469 528.4219,366.4688 Q528.5781,366.3906 528.7813,366.3906 Q529.1094,366.3906 529.3594,366.6563 Q529.625,366.9063 529.625,367.25 Q529.625,367.5938 529.2813,368 Q528.7813,368.5781 527.9844,368.9063 Q526.9063,369.3594 525.6094,369.3594 Q524.0938,369.3594 522.8906,368.7344 Q521.9063,368.2344 521.2188,367.1719 Q520.5313,366.0938 520.5313,364.8125 L520.5313,363.6563 Q520.5313,362.3281 521.1406,361.1875 Q521.7656,360.0313 522.8594,359.4219 Q523.9531,358.7969 525.1875,358.7969 Q525.9219,358.7969 526.5625,358.9688 Q527.2188,359.125 527.7656,359.4844 Z " fill="#000000"/><text fill="#000000" font-family="sans-serif" font-size="14" lengthAdjust="spacing" textLength="99" x="539" y="369.3379">MonoBehaviour</text></g><!--class ImageSource--><g id="elem_ImageSource"><rect codeLine="46" fill="#F1F1F1" height="145.6563" id="ImageSource" rx="2.5" ry="2.5" style="stroke:#181818;stroke-width:0.5;" width="215" x="642" y="439.6094"/><ellipse cx="703.25" cy="455.6094" fill="#A9DCDF" rx="11" ry="11" style="stroke:#181818;stroke-width:1.0;"/><path d="M705.4375,457.375 L701.2969,457.375 L700.875,458.4063 L701.2969,458.4063 Q701.9063,458.4063 702.1719,458.6406 Q702.4375,458.875 702.4375,459.2656 Q702.4375,459.6406 702.1719,459.875 Q701.9063,460.1094 701.2969,460.1094 L699,460.1094 Q698.3906,460.1094 698.1406,459.875 Q697.875,459.6406 697.875,459.25 Q697.875,458.875 698.1563,458.6406 Q698.4219,458.3906 699.0469,458.4063 L701.7188,451.75 L700.6094,451.75 Q700,451.75 699.7344,451.5156 Q699.4688,451.2813 699.4688,450.8906 Q699.4688,450.5156 699.7344,450.2813 Q700,450.0469 700.6094,450.0469 L704.2813,450.0469 L707.6719,458.4063 Q708.2656,458.4063 708.4531,458.5469 Q708.8438,458.8125 708.8438,459.2656 Q708.8438,459.6406 708.5781,459.875 Q708.3281,460.1094 707.7188,460.1094 L705.4219,460.1094 Q704.8125,460.1094 704.5469,459.875 Q704.2813,459.6406 704.2813,459.25 Q704.2813,458.875 704.5469,458.6406 Q704.8125,458.4063 705.4219,458.4063 L705.8438,458.4063 L705.4375,457.375 Z M704.7188,455.6719 L703.3594,452.2969 L701.9844,455.6719 L704.7188,455.6719 Z " fill="#000000"/><text fill="#000000" font-family="sans-serif" font-size="14" font-style="italic" lengthAdjust="spacing" textLength="84" x="723.75" y="461.3379">ImageSource</text><line style="stroke:#181818;stroke-width:0.5;" x1="643" x2="856" y1="471.6094" y2="471.6094"/><ellipse cx="653" cy="485.9141" fill="#84BE84" rx="3" ry="3" style="stroke:#038048;stroke-width:1.0;"/><text fill="#000000" font-family="sans-serif" font-size="14" font-style="italic" lengthAdjust="spacing" textLength="131" x="662" y="490.1426">SelectSource() : void</text><ellipse cx="653" cy="503.5234" fill="#84BE84" rx="3" ry="3" style="stroke:#038048;stroke-width:1.0;"/><text fill="#000000" font-family="sans-serif" font-size="14" font-style="italic" lengthAdjust="spacing" textLength="127" x="662" y="507.752">Play() : IEnumerator</text><ellipse cx="653" cy="521.1328" fill="#84BE84" rx="3" ry="3" style="stroke:#038048;stroke-width:1.0;"/><text fill="#000000" font-family="sans-serif" font-size="14" font-style="italic" lengthAdjust="spacing" textLength="152" x="662" y="525.3613">Resume() : IEnumerator</text><ellipse cx="653" cy="538.7422" fill="#84BE84" rx="3" ry="3" style="stroke:#038048;stroke-width:1.0;"/><text fill="#000000" font-family="sans-serif" font-size="14" font-style="italic" lengthAdjust="spacing" textLength="87" x="662" y="542.9707">Pause() : void</text><ellipse cx="653" cy="556.3516" fill="#84BE84" rx="3" ry="3" style="stroke:#038048;stroke-width:1.0;"/><text fill="#000000" font-family="sans-serif" font-size="14" font-style="italic" lengthAdjust="spacing" textLength="76" x="662" y="560.5801">Stop() : void</text><ellipse cx="653" cy="573.9609" fill="#84BE84" rx="3" ry="3" style="stroke:#038048;stroke-width:1.0;"/><text fill="#000000" font-family="sans-serif" font-size="14" font-style="italic" lengthAdjust="spacing" textLength="189" x="662" y="578.1895">GetCurrentTexture() : Texture</text></g><!--class AnnotationController--><g id="elem_AnnotationController"><rect codeLine="15" fill="#F1F1F1" height="92.8281" id="AnnotationController" rx="2.5" ry="2.5" style="stroke:#181818;stroke-width:0.5;" width="162" x="289.5" y="903.1094"/><ellipse cx="304.5" cy="919.1094" fill="#A9DCDF" rx="11" ry="11" style="stroke:#181818;stroke-width:1.0;"/><path d="M306.6875,920.875 L302.5469,920.875 L302.125,921.9063 L302.5469,921.9063 Q303.1563,921.9063 303.4219,922.1406 Q303.6875,922.375 303.6875,922.7656 Q303.6875,923.1406 303.4219,923.375 Q303.1563,923.6094 302.5469,923.6094 L300.25,923.6094 Q299.6406,923.6094 299.3906,923.375 Q299.125,923.1406 299.125,922.75 Q299.125,922.375 299.4063,922.1406 Q299.6719,921.8906 300.2969,921.9063 L302.9688,915.25 L301.8594,915.25 Q301.25,915.25 300.9844,915.0156 Q300.7188,914.7813 300.7188,914.3906 Q300.7188,914.0156 300.9844,913.7813 Q301.25,913.5469 301.8594,913.5469 L305.5313,913.5469 L308.9219,921.9063 Q309.5156,921.9063 309.7031,922.0469 Q310.0938,922.3125 310.0938,922.7656 Q310.0938,923.1406 309.8281,923.375 Q309.5781,923.6094 308.9688,923.6094 L306.6719,923.6094 Q306.0625,923.6094 305.7969,923.375 Q305.5313,923.1406 305.5313,922.75 Q305.5313,922.375 305.7969,922.1406 Q306.0625,921.9063 306.6719,921.9063 L307.0938,921.9063 L306.6875,920.875 Z M305.9688,919.1719 L304.6094,915.7969 L303.2344,919.1719 L305.9688,919.1719 Z " fill="#000000"/><text fill="#000000" font-family="sans-serif" font-size="14" font-style="italic" lengthAdjust="spacing" textLength="130" x="318.5" y="924.8379">AnnotationController</text><line style="stroke:#181818;stroke-width:0.5;" x1="290.5" x2="450.5" y1="935.1094" y2="935.1094"/><polygon fill="#FFFF44" points="300.5,944.4141,304.5,948.4141,300.5,952.4141,296.5,948.4141" style="stroke:#B38D22;stroke-width:1.0;"/><text fill="#000000" font-family="sans-serif" font-size="14" lengthAdjust="spacing" textLength="78" x="309.5" y="953.6426">Start() : void</text><polygon fill="#FFFF44" points="300.5,962.0234,304.5,966.0234,300.5,970.0234,296.5,966.0234" style="stroke:#B38D22;stroke-width:1.0;"/><text fill="#000000" font-family="sans-serif" font-size="14" lengthAdjust="spacing" textLength="121" x="309.5" y="971.252">LateUpdate() : void</text><polygon fill="#FFFF44" points="300.5,979.6328,304.5,983.6328,300.5,987.6328,296.5,983.6328" style="stroke:#B38D22;stroke-width:1.0;"/><text fill="#000000" font-family="sans-serif" font-size="14" font-style="italic" lengthAdjust="spacing" textLength="105" x="309.5" y="988.8613">SyncNow() : void</text></g><!--class HandLandmarkerResultAnnotationController--><g id="elem_HandLandmarkerResultAnnotationController"><rect codeLine="23" fill="#F1F1F1" height="92.8281" id="HandLandmarkerResultAnnotationController" rx="2.5" ry="2.5" style="stroke:#181818;stroke-width:0.5;" width="311" x="140" y="1130.6094"/><ellipse cx="155" cy="1146.6094" fill="#ADD1B2" rx="11" ry="11" style="stroke:#181818;stroke-width:1.0;"/><path d="M157.7656,1142.4844 Q157.9219,1142.2656 158.1094,1142.1563 Q158.2969,1142.0469 158.5156,1142.0469 Q158.8906,1142.0469 159.125,1142.3125 Q159.3594,1142.5625 159.3594,1143.1719 L159.3594,1144.625 Q159.3594,1145.2344 159.125,1145.5 Q158.8906,1145.7656 158.5156,1145.7656 Q158.1719,1145.7656 157.9688,1145.5625 Q157.7656,1145.375 157.6563,1144.8594 Q157.6094,1144.5 157.4219,1144.3125 Q157.0938,1143.9375 156.4844,1143.7188 Q155.875,1143.5 155.25,1143.5 Q154.4844,1143.5 153.8438,1143.8281 Q153.2188,1144.1563 152.7188,1144.9063 Q152.2344,1145.6563 152.2344,1146.6875 L152.2344,1147.7813 Q152.2344,1149.0156 153.125,1149.8438 Q154.0156,1150.6563 155.6094,1150.6563 Q156.5469,1150.6563 157.2031,1150.4063 Q157.5938,1150.25 158.0156,1149.8125 Q158.2813,1149.5469 158.4219,1149.4688 Q158.5781,1149.3906 158.7813,1149.3906 Q159.1094,1149.3906 159.3594,1149.6563 Q159.625,1149.9063 159.625,1150.25 Q159.625,1150.5938 159.2813,1151 Q158.7813,1151.5781 157.9844,1151.9063 Q156.9063,1152.3594 155.6094,1152.3594 Q154.0938,1152.3594 152.8906,1151.7344 Q151.9063,1151.2344 151.2188,1150.1719 Q150.5313,1149.0938 150.5313,1147.8125 L150.5313,1146.6563 Q150.5313,1145.3281 151.1406,1144.1875 Q151.7656,1143.0313 152.8594,1142.4219 Q153.9531,1141.7969 155.1875,1141.7969 Q155.9219,1141.7969 156.5625,1141.9688 Q157.2188,1142.125 157.7656,1142.4844 Z " fill="#000000"/><text fill="#000000" font-family="sans-serif" font-size="14" lengthAdjust="spacing" textLength="279" x="169" y="1152.3379">HandLandmarkerResultAnnotationController</text><line style="stroke:#181818;stroke-width:0.5;" x1="141" x2="450" y1="1162.6094" y2="1162.6094"/><ellipse cx="151" cy="1176.9141" fill="#84BE84" rx="3" ry="3" style="stroke:#038048;stroke-width:1.0;"/><text fill="#000000" font-family="sans-serif" font-size="14" lengthAdjust="spacing" textLength="113" x="160" y="1181.1426">DrawLater() : void</text><polygon fill="#FFFF44" points="151,1189.5234,155,1193.5234,151,1197.5234,147,1193.5234" style="stroke:#B38D22;stroke-width:1.0;"/><text fill="#000000" font-family="sans-serif" font-size="14" lengthAdjust="spacing" textLength="183" x="160" y="1198.752">UpdateCurrentTarget() : void</text><polygon fill="#FFFF44" points="151,1207.1328,155,1211.1328,151,1215.1328,147,1211.1328" style="stroke:#B38D22;stroke-width:1.0;"/><text fill="#000000" font-family="sans-serif" font-size="14" lengthAdjust="spacing" textLength="105" x="160" y="1216.3613">SyncNow() : void</text></g><!--class HierarchicalAnnotation--><g id="elem_HierarchicalAnnotation"><rect codeLine="34" fill="#F1F1F1" height="32" id="HierarchicalAnnotation" rx="2.5" ry="2.5" style="stroke:#181818;stroke-width:0.5;" width="175" x="145" y="496.6094"/><ellipse cx="160" cy="512.6094" fill="#A9DCDF" rx="11" ry="11" style="stroke:#181818;stroke-width:1.0;"/><path d="M162.1875,514.375 L158.0469,514.375 L157.625,515.4063 L158.0469,515.4063 Q158.6563,515.4063 158.9219,515.6406 Q159.1875,515.875 159.1875,516.2656 Q159.1875,516.6406 158.9219,516.875 Q158.6563,517.1094 158.0469,517.1094 L155.75,517.1094 Q155.1406,517.1094 154.8906,516.875 Q154.625,516.6406 154.625,516.25 Q154.625,515.875 154.9063,515.6406 Q155.1719,515.3906 155.7969,515.4063 L158.4688,508.75 L157.3594,508.75 Q156.75,508.75 156.4844,508.5156 Q156.2188,508.2813 156.2188,507.8906 Q156.2188,507.5156 156.4844,507.2813 Q156.75,507.0469 157.3594,507.0469 L161.0313,507.0469 L164.4219,515.4063 Q165.0156,515.4063 165.2031,515.5469 Q165.5938,515.8125 165.5938,516.2656 Q165.5938,516.6406 165.3281,516.875 Q165.0781,517.1094 164.4688,517.1094 L162.1719,517.1094 Q161.5625,517.1094 161.2969,516.875 Q161.0313,516.6406 161.0313,516.25 Q161.0313,515.875 161.2969,515.6406 Q161.5625,515.4063 162.1719,515.4063 L162.5938,515.4063 L162.1875,514.375 Z M161.4688,512.6719 L160.1094,509.2969 L158.7344,512.6719 L161.4688,512.6719 Z " fill="#000000"/><text fill="#000000" font-family="sans-serif" font-size="14" font-style="italic" lengthAdjust="spacing" textLength="143" x="174" y="518.3379">HierarchicalAnnotation</text></g><!--class IHierachicalAnnotation--><g id="elem_IHierachicalAnnotation"><rect codeLine="32" fill="#F1F1F1" height="32" id="IHierachicalAnnotation" rx="2.5" ry="2.5" style="stroke:#181818;stroke-width:0.5;" width="174" x="145.5" y="347.6094"/><ellipse cx="160.5" cy="363.6094" fill="#B4A7E5" rx="11" ry="11" style="stroke:#181818;stroke-width:1.0;"/><path d="M161.4531,360.25 L161.4531,366.9063 L163.1719,366.9063 Q163.7813,366.9063 164.0469,367.1406 Q164.3125,367.375 164.3125,367.7656 Q164.3125,368.1406 164.0469,368.375 Q163.7813,368.6094 163.1719,368.6094 L158.0313,368.6094 Q157.4219,368.6094 157.1563,368.375 Q156.8906,368.1406 156.8906,367.75 Q156.8906,367.375 157.1563,367.1406 Q157.4219,366.9063 158.0313,366.9063 L159.75,366.9063 L159.75,360.25 L158.0313,360.25 Q157.4219,360.25 157.1563,360.0156 Q156.8906,359.7813 156.8906,359.3906 Q156.8906,359.0156 157.1563,358.7813 Q157.4219,358.5469 158.0313,358.5469 L163.1719,358.5469 Q163.7813,358.5469 164.0469,358.7813 Q164.3125,359.0156 164.3125,359.3906 Q164.3125,359.7813 164.0469,360.0156 Q163.7813,360.25 163.1719,360.25 L161.4531,360.25 Z " fill="#000000"/><text fill="#000000" font-family="sans-serif" font-size="14" font-style="italic" lengthAdjust="spacing" textLength="142" x="174.5" y="369.3379">IHierachicalAnnotation</text></g><!--class ListAnnotation--><g id="elem_ListAnnotation"><rect codeLine="38" fill="#F1F1F1" height="32" id="ListAnnotation" rx="2.5" ry="2.5" style="stroke:#181818;stroke-width:0.5;" width="122" x="90.5" y="715.1094"/><ellipse cx="105.5" cy="731.1094" fill="#A9DCDF" rx="11" ry="11" style="stroke:#181818;stroke-width:1.0;"/><path d="M107.6875,732.875 L103.5469,732.875 L103.125,733.9063 L103.5469,733.9063 Q104.1563,733.9063 104.4219,734.1406 Q104.6875,734.375 104.6875,734.7656 Q104.6875,735.1406 104.4219,735.375 Q104.1563,735.6094 103.5469,735.6094 L101.25,735.6094 Q100.6406,735.6094 100.3906,735.375 Q100.125,735.1406 100.125,734.75 Q100.125,734.375 100.4063,734.1406 Q100.6719,733.8906 101.2969,733.9063 L103.9688,727.25 L102.8594,727.25 Q102.25,727.25 101.9844,727.0156 Q101.7188,726.7813 101.7188,726.3906 Q101.7188,726.0156 101.9844,725.7813 Q102.25,725.5469 102.8594,725.5469 L106.5313,725.5469 L109.9219,733.9063 Q110.5156,733.9063 110.7031,734.0469 Q111.0938,734.3125 111.0938,734.7656 Q111.0938,735.1406 110.8281,735.375 Q110.5781,735.6094 109.9688,735.6094 L107.6719,735.6094 Q107.0625,735.6094 106.7969,735.375 Q106.5313,735.1406 106.5313,734.75 Q106.5313,734.375 106.7969,734.1406 Q107.0625,733.9063 107.6719,733.9063 L108.0938,733.9063 L107.6875,732.875 Z M106.9688,731.1719 L105.6094,727.7969 L104.2344,731.1719 L106.9688,731.1719 Z " fill="#000000"/><text fill="#000000" font-family="sans-serif" font-size="14" font-style="italic" lengthAdjust="spacing" textLength="90" x="119.5" y="736.8379">ListAnnotation</text></g><!--class MultiHandLandmarkListAnnotation--><g id="elem_MultiHandLandmarkListAnnotation"><rect codeLine="42" fill="#F1F1F1" height="57.6094" id="MultiHandLandmarkListAnnotation" rx="2.5" ry="2.5" style="stroke:#181818;stroke-width:0.5;" width="247" x="7" y="920.6094"/><ellipse cx="22" cy="936.6094" fill="#ADD1B2" rx="11" ry="11" style="stroke:#181818;stroke-width:1.0;"/><path d="M24.7656,932.4844 Q24.9219,932.2656 25.1094,932.1563 Q25.2969,932.0469 25.5156,932.0469 Q25.8906,932.0469 26.125,932.3125 Q26.3594,932.5625 26.3594,933.1719 L26.3594,934.625 Q26.3594,935.2344 26.125,935.5 Q25.8906,935.7656 25.5156,935.7656 Q25.1719,935.7656 24.9688,935.5625 Q24.7656,935.375 24.6563,934.8594 Q24.6094,934.5 24.4219,934.3125 Q24.0938,933.9375 23.4844,933.7188 Q22.875,933.5 22.25,933.5 Q21.4844,933.5 20.8438,933.8281 Q20.2188,934.1563 19.7188,934.9063 Q19.2344,935.6563 19.2344,936.6875 L19.2344,937.7813 Q19.2344,939.0156 20.125,939.8438 Q21.0156,940.6563 22.6094,940.6563 Q23.5469,940.6563 24.2031,940.4063 Q24.5938,940.25 25.0156,939.8125 Q25.2813,939.5469 25.4219,939.4688 Q25.5781,939.3906 25.7813,939.3906 Q26.1094,939.3906 26.3594,939.6563 Q26.625,939.9063 26.625,940.25 Q26.625,940.5938 26.2813,941 Q25.7813,941.5781 24.9844,941.9063 Q23.9063,942.3594 22.6094,942.3594 Q21.0938,942.3594 19.8906,941.7344 Q18.9063,941.2344 18.2188,940.1719 Q17.5313,939.0938 17.5313,937.8125 L17.5313,936.6563 Q17.5313,935.3281 18.1406,934.1875 Q18.7656,933.0313 19.8594,932.4219 Q20.9531,931.7969 22.1875,931.7969 Q22.9219,931.7969 23.5625,931.9688 Q24.2188,932.125 24.7656,932.4844 Z " fill="#000000"/><text fill="#000000" font-family="sans-serif" font-size="14" lengthAdjust="spacing" textLength="215" x="36" y="942.3379">MultiHandLandmarkListAnnotation</text><line style="stroke:#181818;stroke-width:0.5;" x1="8" x2="253" y1="952.6094" y2="952.6094"/><ellipse cx="18" cy="966.9141" fill="#84BE84" rx="3" ry="3" style="stroke:#038048;stroke-width:1.0;"/><text fill="#000000" font-family="sans-serif" font-size="14" lengthAdjust="spacing" textLength="80" x="27" y="971.1426">Draw() : void</text></g><!--class WebCamSource--><g id="elem_WebCamSource"><rect codeLine="57" fill="#F1F1F1" height="171.2656" id="WebCamSource" rx="2.5" ry="2.5" style="stroke:#181818;stroke-width:0.5;" width="254" x="634.5" y="645.6094"/><ellipse cx="705.75" cy="661.6094" fill="#ADD1B2" rx="11" ry="11" style="stroke:#181818;stroke-width:1.0;"/><path d="M708.5156,657.4844 Q708.6719,657.2656 708.8594,657.1563 Q709.0469,657.0469 709.2656,657.0469 Q709.6406,657.0469 709.875,657.3125 Q710.1094,657.5625 710.1094,658.1719 L710.1094,659.625 Q710.1094,660.2344 709.875,660.5 Q709.6406,660.7656 709.2656,660.7656 Q708.9219,660.7656 708.7188,660.5625 Q708.5156,660.375 708.4063,659.8594 Q708.3594,659.5 708.1719,659.3125 Q707.8438,658.9375 707.2344,658.7188 Q706.625,658.5 706,658.5 Q705.2344,658.5 704.5938,658.8281 Q703.9688,659.1563 703.4688,659.9063 Q702.9844,660.6563 702.9844,661.6875 L702.9844,662.7813 Q702.9844,664.0156 703.875,664.8438 Q704.7656,665.6563 706.3594,665.6563 Q707.2969,665.6563 707.9531,665.4063 Q708.3438,665.25 708.7656,664.8125 Q709.0313,664.5469 709.1719,664.4688 Q709.3281,664.3906 709.5313,664.3906 Q709.8594,664.3906 710.1094,664.6563 Q710.375,664.9063 710.375,665.25 Q710.375,665.5938 710.0313,666 Q709.5313,666.5781 708.7344,666.9063 Q707.6563,667.3594 706.3594,667.3594 Q704.8438,667.3594 703.6406,666.7344 Q702.6563,666.2344 701.9688,665.1719 Q701.2813,664.0938 701.2813,662.8125 L701.2813,661.6563 Q701.2813,660.3281 701.8906,659.1875 Q702.5156,658.0313 703.6094,657.4219 Q704.7031,656.7969 705.9375,656.7969 Q706.6719,656.7969 707.3125,656.9688 Q707.9688,657.125 708.5156,657.4844 Z " fill="#000000"/><text fill="#000000" font-family="sans-serif" font-size="14" lengthAdjust="spacing" textLength="103" x="726.25" y="667.3379">WebCamSource</text><line style="stroke:#181818;stroke-width:0.5;" x1="635.5" x2="887.5" y1="677.6094" y2="677.6094"/><rect fill="none" height="6" style="stroke:#C82930;stroke-width:1.0;" width="6" x="642.5" y="688.9141"/><text fill="#000000" font-family="sans-serif" font-size="14" lengthAdjust="spacing" textLength="228" x="654.5" y="696.1426">_webCamTexture : WebCamTexture</text><line style="stroke:#181818;stroke-width:0.5;" x1="635.5" x2="887.5" y1="703.2188" y2="703.2188"/><ellipse cx="645.5" cy="717.5234" fill="#84BE84" rx="3" ry="3" style="stroke:#038048;stroke-width:1.0;"/><text fill="#000000" font-family="sans-serif" font-size="14" lengthAdjust="spacing" textLength="132" x="654.5" y="721.752">SelectSource() : void</text><ellipse cx="645.5" cy="735.1328" fill="#84BE84" rx="3" ry="3" style="stroke:#038048;stroke-width:1.0;"/><text fill="#000000" font-family="sans-serif" font-size="14" lengthAdjust="spacing" textLength="126" x="654.5" y="739.3613">Play() : IEnumerator</text><ellipse cx="645.5" cy="752.7422" fill="#84BE84" rx="3" ry="3" style="stroke:#038048;stroke-width:1.0;"/><text fill="#000000" font-family="sans-serif" font-size="14" lengthAdjust="spacing" textLength="151" x="654.5" y="756.9707">Resume() : IEnumerator</text><ellipse cx="645.5" cy="770.3516" fill="#84BE84" rx="3" ry="3" style="stroke:#038048;stroke-width:1.0;"/><text fill="#000000" font-family="sans-serif" font-size="14" lengthAdjust="spacing" textLength="88" x="654.5" y="774.5801">Pause() : void</text><ellipse cx="645.5" cy="787.9609" fill="#84BE84" rx="3" ry="3" style="stroke:#038048;stroke-width:1.0;"/><text fill="#000000" font-family="sans-serif" font-size="14" lengthAdjust="spacing" textLength="77" x="654.5" y="792.1895">Stop() : void</text><ellipse cx="645.5" cy="805.5703" fill="#84BE84" rx="3" ry="3" style="stroke:#038048;stroke-width:1.0;"/><text fill="#000000" font-family="sans-serif" font-size="14" lengthAdjust="spacing" textLength="189" x="654.5" y="809.7988">GetCurrentTexture() : Texture</text></g><!--class IDisposable--><g id="elem_IDisposable"><rect codeLine="67" fill="#F1F1F1" height="32" id="IDisposable" rx="2.5" ry="2.5" style="stroke:#181818;stroke-width:0.5;" width="106" x="1676.5" y="242.6094"/><ellipse cx="1691.5" cy="258.6094" fill="#B4A7E5" rx="11" ry="11" style="stroke:#181818;stroke-width:1.0;"/><path d="M1692.4531,255.25 L1692.4531,261.9063 L1694.1719,261.9063 Q1694.7813,261.9063 1695.0469,262.1406 Q1695.3125,262.375 1695.3125,262.7656 Q1695.3125,263.1406 1695.0469,263.375 Q1694.7813,263.6094 1694.1719,263.6094 L1689.0313,263.6094 Q1688.4219,263.6094 1688.1563,263.375 Q1687.8906,263.1406 1687.8906,262.75 Q1687.8906,262.375 1688.1563,262.1406 Q1688.4219,261.9063 1689.0313,261.9063 L1690.75,261.9063 L1690.75,255.25 L1689.0313,255.25 Q1688.4219,255.25 1688.1563,255.0156 Q1687.8906,254.7813 1687.8906,254.3906 Q1687.8906,254.0156 1688.1563,253.7813 Q1688.4219,253.5469 1689.0313,253.5469 L1694.1719,253.5469 Q1694.7813,253.5469 1695.0469,253.7813 Q1695.3125,254.0156 1695.3125,254.3906 Q1695.3125,254.7813 1695.0469,255.0156 Q1694.7813,255.25 1694.1719,255.25 L1692.4531,255.25 Z " fill="#000000"/><text fill="#000000" font-family="sans-serif" font-size="14" font-style="italic" lengthAdjust="spacing" textLength="74" x="1705.5" y="264.3379">IDisposable</text></g><!--class BaseVisionTaskApi--><g id="elem_BaseVisionTaskApi"><rect codeLine="165" fill="#F1F1F1" height="57.6094" id="BaseVisionTaskApi" rx="2.5" ry="2.5" style="stroke:#181818;stroke-width:0.5;" width="208" x="1489.5" y="1148.1094"/><ellipse cx="1529.25" cy="1164.1094" fill="#ADD1B2" rx="11" ry="11" style="stroke:#181818;stroke-width:1.0;"/><path d="M1532.0156,1159.9844 Q1532.1719,1159.7656 1532.3594,1159.6563 Q1532.5469,1159.5469 1532.7656,1159.5469 Q1533.1406,1159.5469 1533.375,1159.8125 Q1533.6094,1160.0625 1533.6094,1160.6719 L1533.6094,1162.125 Q1533.6094,1162.7344 1533.375,1163 Q1533.1406,1163.2656 1532.7656,1163.2656 Q1532.4219,1163.2656 1532.2188,1163.0625 Q1532.0156,1162.875 1531.9063,1162.3594 Q1531.8594,1162 1531.6719,1161.8125 Q1531.3438,1161.4375 1530.7344,1161.2188 Q1530.125,1161 1529.5,1161 Q1528.7344,1161 1528.0938,1161.3281 Q1527.4688,1161.6563 1526.9688,1162.4063 Q1526.4844,1163.1563 1526.4844,1164.1875 L1526.4844,1165.2813 Q1526.4844,1166.5156 1527.375,1167.3438 Q1528.2656,1168.1563 1529.8594,1168.1563 Q1530.7969,1168.1563 1531.4531,1167.9063 Q1531.8438,1167.75 1532.2656,1167.3125 Q1532.5313,1167.0469 1532.6719,1166.9688 Q1532.8281,1166.8906 1533.0313,1166.8906 Q1533.3594,1166.8906 1533.6094,1167.1563 Q1533.875,1167.4063 1533.875,1167.75 Q1533.875,1168.0938 1533.5313,1168.5 Q1533.0313,1169.0781 1532.2344,1169.4063 Q1531.1563,1169.8594 1529.8594,1169.8594 Q1528.3438,1169.8594 1527.1406,1169.2344 Q1526.1563,1168.7344 1525.4688,1167.6719 Q1524.7813,1166.5938 1524.7813,1165.3125 L1524.7813,1164.1563 Q1524.7813,1162.8281 1525.3906,1161.6875 Q1526.0156,1160.5313 1527.1094,1159.9219 Q1528.2031,1159.2969 1529.4375,1159.2969 Q1530.1719,1159.2969 1530.8125,1159.4688 Q1531.4688,1159.625 1532.0156,1159.9844 Z " fill="#000000"/><text fill="#000000" font-family="sans-serif" font-size="14" lengthAdjust="spacing" textLength="121" x="1548.75" y="1169.8379">BaseVisionTaskApi</text><line style="stroke:#181818;stroke-width:0.5;" x1="1490.5" x2="1696.5" y1="1180.1094" y2="1180.1094"/><polygon fill="#FFFF44" points="1500.5,1189.4141,1504.5,1193.4141,1500.5,1197.4141,1496.5,1193.4141" style="stroke:#B38D22;stroke-width:1.0;"/><text fill="#000000" font-family="sans-serif" font-size="14" lengthAdjust="spacing" textLength="182" x="1509.5" y="1198.6426">SendLiveStreamData() : void</text></g><!--class BaseRunner--><g id="elem_BaseRunner"><rect codeLine="73" fill="#F1F1F1" height="241.7031" id="BaseRunner" rx="2.5" ry="2.5" style="stroke:#181818;stroke-width:0.5;" width="260" x="731.5" y="1331.6094"/><ellipse cx="817.75" cy="1347.6094" fill="#A9DCDF" rx="11" ry="11" style="stroke:#181818;stroke-width:1.0;"/><path d="M819.9375,1349.375 L815.7969,1349.375 L815.375,1350.4063 L815.7969,1350.4063 Q816.4063,1350.4063 816.6719,1350.6406 Q816.9375,1350.875 816.9375,1351.2656 Q816.9375,1351.6406 816.6719,1351.875 Q816.4063,1352.1094 815.7969,1352.1094 L813.5,1352.1094 Q812.8906,1352.1094 812.6406,1351.875 Q812.375,1351.6406 812.375,1351.25 Q812.375,1350.875 812.6563,1350.6406 Q812.9219,1350.3906 813.5469,1350.4063 L816.2188,1343.75 L815.1094,1343.75 Q814.5,1343.75 814.2344,1343.5156 Q813.9688,1343.2813 813.9688,1342.8906 Q813.9688,1342.5156 814.2344,1342.2813 Q814.5,1342.0469 815.1094,1342.0469 L818.7813,1342.0469 L822.1719,1350.4063 Q822.7656,1350.4063 822.9531,1350.5469 Q823.3438,1350.8125 823.3438,1351.2656 Q823.3438,1351.6406 823.0781,1351.875 Q822.8281,1352.1094 822.2188,1352.1094 L819.9219,1352.1094 Q819.3125,1352.1094 819.0469,1351.875 Q818.7813,1351.6406 818.7813,1351.25 Q818.7813,1350.875 819.0469,1350.6406 Q819.3125,1350.4063 819.9219,1350.4063 L820.3438,1350.4063 L819.9375,1349.375 Z M819.2188,1347.6719 L817.8594,1344.2969 L816.4844,1347.6719 L819.2188,1347.6719 Z " fill="#000000"/><text fill="#000000" font-family="sans-serif" font-size="14" font-style="italic" lengthAdjust="spacing" textLength="79" x="838.25" y="1353.3379">BaseRunner</text><line style="stroke:#181818;stroke-width:0.5;" x1="732.5" x2="990.5" y1="1363.6094" y2="1363.6094"/><rect fill="none" height="6" style="stroke:#C82930;stroke-width:1.0;" width="6" x="739.5" y="1374.9141"/><text fill="#000000" font-family="sans-serif" font-size="14" lengthAdjust="spacing" textLength="152" x="751.5" y="1382.1426">_BootstrapName : string</text><rect fill="none" height="6" style="stroke:#C82930;stroke-width:1.0;" width="6" x="739.5" y="1392.5234"/><text fill="#000000" font-family="sans-serif" font-size="14" lengthAdjust="spacing" textLength="201" x="751.5" y="1399.752">_bootstrapPrefab : GameObject</text><polygon fill="none" points="742.5,1408.1328,746.5,1412.1328,742.5,1416.1328,738.5,1412.1328" style="stroke:#B38D22;stroke-width:1.0;"/><text fill="#000000" font-family="sans-serif" font-size="14" lengthAdjust="spacing" textLength="133" x="751.5" y="1417.3613">bootstrap : Bootstrap</text><polygon fill="none" points="742.5,1425.7422,746.5,1429.7422,742.5,1433.7422,738.5,1429.7422" style="stroke:#B38D22;stroke-width:1.0;"/><text fill="#000000" font-family="sans-serif" font-size="14" lengthAdjust="spacing" textLength="97" x="751.5" y="1434.9707">isPaused : bool</text><line style="stroke:#181818;stroke-width:0.5;" x1="732.5" x2="990.5" y1="1442.0469" y2="1442.0469"/><polygon fill="#FFFF44" points="742.5,1451.3516,746.5,1455.3516,742.5,1459.3516,738.5,1455.3516" style="stroke:#B38D22;stroke-width:1.0;"/><text fill="#000000" font-family="sans-serif" font-size="14" font-style="italic" lengthAdjust="spacing" textLength="130" x="751.5" y="1460.5801">Start() : IEnumerator</text><ellipse cx="742.5" cy="1473.9609" fill="#84BE84" rx="3" ry="3" style="stroke:#038048;stroke-width:1.0;"/><text fill="#000000" font-family="sans-serif" font-size="14" font-style="italic" lengthAdjust="spacing" textLength="74" x="751.5" y="1478.1895">Play() : void</text><ellipse cx="742.5" cy="1491.5703" fill="#84BE84" rx="3" ry="3" style="stroke:#038048;stroke-width:1.0;"/><text fill="#000000" font-family="sans-serif" font-size="14" font-style="italic" lengthAdjust="spacing" textLength="87" x="751.5" y="1495.7988">Pause() : void</text><ellipse cx="742.5" cy="1509.1797" fill="#84BE84" rx="3" ry="3" style="stroke:#038048;stroke-width:1.0;"/><text fill="#000000" font-family="sans-serif" font-size="14" font-style="italic" lengthAdjust="spacing" textLength="99" x="751.5" y="1513.4082">Resume() : void</text><ellipse cx="742.5" cy="1526.7891" fill="#84BE84" rx="3" ry="3" style="stroke:#038048;stroke-width:1.0;"/><text fill="#000000" font-family="sans-serif" font-size="14" font-style="italic" lengthAdjust="spacing" textLength="76" x="751.5" y="1531.0176">Stop() : void</text><polygon fill="#FFFF44" points="742.5,1539.3984,746.5,1543.3984,742.5,1547.3984,738.5,1543.3984" style="stroke:#B38D22;stroke-width:1.0;"/><text fill="#000000" font-family="sans-serif" font-size="14" lengthAdjust="spacing" textLength="234" x="751.5" y="1548.627">GetCurrentTimestampMillisec() : long</text><polygon fill="#FFFF44" points="742.5,1557.0078,746.5,1561.0078,742.5,1565.0078,738.5,1561.0078" style="stroke:#B38D22;stroke-width:1.0;"/><text fill="#000000" font-family="sans-serif" font-size="14" lengthAdjust="spacing" textLength="172" x="751.5" y="1566.2363">FindBootstrap() : Bootstrap</text></g><!--class Bootstrap--><g id="elem_Bootstrap"><rect codeLine="91" fill="#F1F1F1" height="188.875" id="Bootstrap" rx="2.5" ry="2.5" style="stroke:#181818;stroke-width:0.5;" width="226" x="813.5" y="1082.6094"/><ellipse cx="891.75" cy="1098.6094" fill="#ADD1B2" rx="11" ry="11" style="stroke:#181818;stroke-width:1.0;"/><path d="M894.5156,1094.4844 Q894.6719,1094.2656 894.8594,1094.1563 Q895.0469,1094.0469 895.2656,1094.0469 Q895.6406,1094.0469 895.875,1094.3125 Q896.1094,1094.5625 896.1094,1095.1719 L896.1094,1096.625 Q896.1094,1097.2344 895.875,1097.5 Q895.6406,1097.7656 895.2656,1097.7656 Q894.9219,1097.7656 894.7188,1097.5625 Q894.5156,1097.375 894.4063,1096.8594 Q894.3594,1096.5 894.1719,1096.3125 Q893.8438,1095.9375 893.2344,1095.7188 Q892.625,1095.5 892,1095.5 Q891.2344,1095.5 890.5938,1095.8281 Q889.9688,1096.1563 889.4688,1096.9063 Q888.9844,1097.6563 888.9844,1098.6875 L888.9844,1099.7813 Q888.9844,1101.0156 889.875,1101.8438 Q890.7656,1102.6563 892.3594,1102.6563 Q893.2969,1102.6563 893.9531,1102.4063 Q894.3438,1102.25 894.7656,1101.8125 Q895.0313,1101.5469 895.1719,1101.4688 Q895.3281,1101.3906 895.5313,1101.3906 Q895.8594,1101.3906 896.1094,1101.6563 Q896.375,1101.9063 896.375,1102.25 Q896.375,1102.5938 896.0313,1103 Q895.5313,1103.5781 894.7344,1103.9063 Q893.6563,1104.3594 892.3594,1104.3594 Q890.8438,1104.3594 889.6406,1103.7344 Q888.6563,1103.2344 887.9688,1102.1719 Q887.2813,1101.0938 887.2813,1099.8125 L887.2813,1098.6563 Q887.2813,1097.3281 887.8906,1096.1875 Q888.5156,1095.0313 889.6094,1094.4219 Q890.7031,1093.7969 891.9375,1093.7969 Q892.6719,1093.7969 893.3125,1093.9688 Q893.9688,1094.125 894.5156,1094.4844 Z " fill="#000000"/><text fill="#000000" font-family="sans-serif" font-size="14" lengthAdjust="spacing" textLength="61" x="912.25" y="1104.3379">Bootstrap</text><line style="stroke:#181818;stroke-width:0.5;" x1="814.5" x2="1038.5" y1="1114.6094" y2="1114.6094"/><rect fill="none" height="6" style="stroke:#C82930;stroke-width:1.0;" width="6" x="821.5" y="1125.9141"/><text fill="#000000" font-family="sans-serif" font-size="14" lengthAdjust="spacing" textLength="171" x="833.5" y="1133.1426">_appSettings : AppSettings</text><ellipse cx="824.5" cy="1146.5234" fill="none" rx="3" ry="3" style="stroke:#038048;stroke-width:1.0;"/><text fill="#000000" font-family="sans-serif" font-size="14" lengthAdjust="spacing" textLength="200" x="833.5" y="1150.752">inferenceMode : InferenceMode</text><ellipse cx="824.5" cy="1164.1328" fill="none" rx="3" ry="3" style="stroke:#038048;stroke-width:1.0;"/><text fill="#000000" font-family="sans-serif" font-size="14" lengthAdjust="spacing" textLength="103" x="833.5" y="1168.3613">isFinished : bool</text><rect fill="none" height="6" style="stroke:#C82930;stroke-width:1.0;" width="6" x="821.5" y="1178.7422"/><text fill="#000000" font-family="sans-serif" font-size="14" lengthAdjust="spacing" textLength="136" x="833.5" y="1185.9707">_isGlogInitialize : bool</text><line style="stroke:#181818;stroke-width:0.5;" x1="814.5" x2="1038.5" y1="1193.0469" y2="1193.0469"/><rect fill="#F24D5C" height="6" style="stroke:#C82930;stroke-width:1.0;" width="6" x="821.5" y="1204.3516"/><text fill="#000000" font-family="sans-serif" font-size="14" lengthAdjust="spacing" textLength="111" x="833.5" y="1211.5801">OnEnable() : void</text><rect fill="#F24D5C" height="6" style="stroke:#C82930;stroke-width:1.0;" width="6" x="821.5" y="1221.9609"/><text fill="#000000" font-family="sans-serif" font-size="14" lengthAdjust="spacing" textLength="117" x="833.5" y="1229.1895">Init() : IEnumerator</text><rect fill="#F24D5C" height="6" style="stroke:#C82930;stroke-width:1.0;" width="6" x="821.5" y="1239.5703"/><text fill="#000000" font-family="sans-serif" font-size="14" lengthAdjust="spacing" textLength="186" x="833.5" y="1246.7988">DecideInferenceMode() : void</text><rect fill="#F24D5C" height="6" style="stroke:#C82930;stroke-width:1.0;" width="6" x="821.5" y="1257.1797"/><text fill="#000000" font-family="sans-serif" font-size="14" lengthAdjust="spacing" textLength="162" x="833.5" y="1264.4082">OnApplicationQuit() : void</text></g><!--class ImageSourceProvider--><g id="elem_ImageSourceProvider"><rect codeLine="104" fill="#F1F1F1" height="118.4375" id="ImageSourceProvider" rx="2.5" ry="2.5" style="stroke:#181818;stroke-width:0.5;" width="278" x="628.5" y="890.6094"/><ellipse cx="695.25" cy="906.6094" fill="#ADD1B2" rx="11" ry="11" style="stroke:#181818;stroke-width:1.0;"/><path d="M698.0156,902.4844 Q698.1719,902.2656 698.3594,902.1563 Q698.5469,902.0469 698.7656,902.0469 Q699.1406,902.0469 699.375,902.3125 Q699.6094,902.5625 699.6094,903.1719 L699.6094,904.625 Q699.6094,905.2344 699.375,905.5 Q699.1406,905.7656 698.7656,905.7656 Q698.4219,905.7656 698.2188,905.5625 Q698.0156,905.375 697.9063,904.8594 Q697.8594,904.5 697.6719,904.3125 Q697.3438,903.9375 696.7344,903.7188 Q696.125,903.5 695.5,903.5 Q694.7344,903.5 694.0938,903.8281 Q693.4688,904.1563 692.9688,904.9063 Q692.4844,905.6563 692.4844,906.6875 L692.4844,907.7813 Q692.4844,909.0156 693.375,909.8438 Q694.2656,910.6563 695.8594,910.6563 Q696.7969,910.6563 697.4531,910.4063 Q697.8438,910.25 698.2656,909.8125 Q698.5313,909.5469 698.6719,909.4688 Q698.8281,909.3906 699.0313,909.3906 Q699.3594,909.3906 699.6094,909.6563 Q699.875,909.9063 699.875,910.25 Q699.875,910.5938 699.5313,911 Q699.0313,911.5781 698.2344,911.9063 Q697.1563,912.3594 695.8594,912.3594 Q694.3438,912.3594 693.1406,911.7344 Q692.1563,911.2344 691.4688,910.1719 Q690.7813,909.0938 690.7813,907.8125 L690.7813,906.6563 Q690.7813,905.3281 691.3906,904.1875 Q692.0156,903.0313 693.1094,902.4219 Q694.2031,901.7969 695.4375,901.7969 Q696.1719,901.7969 696.8125,901.9688 Q697.4688,902.125 698.0156,902.4844 Z " fill="#000000"/><text fill="#000000" font-family="sans-serif" font-size="14" lengthAdjust="spacing" textLength="136" x="715.75" y="912.3379">ImageSourceProvider</text><line style="stroke:#181818;stroke-width:0.5;" x1="629.5" x2="905.5" y1="922.6094" y2="922.6094"/><ellipse cx="639.5" cy="936.9141" fill="none" rx="3" ry="3" style="stroke:#038048;stroke-width:1.0;"/><text fill="#000000" font-family="sans-serif" font-size="14" lengthAdjust="spacing" text-decoration="underline" textLength="178" x="648.5" y="941.1426">ImageSource : ImageSource</text><ellipse cx="639.5" cy="954.5234" fill="none" rx="3" ry="3" style="stroke:#038048;stroke-width:1.0;"/><text fill="#000000" font-family="sans-serif" font-size="14" lengthAdjust="spacing" text-decoration="underline" textLength="252" x="648.5" y="958.752">CurrentSourceType : ImageSourceType</text><line style="stroke:#181818;stroke-width:0.5;" x1="629.5" x2="905.5" y1="965.8281" y2="965.8281"/><polygon fill="#4177AF" points="639.5,976.1328,635.5,982.1328,643.5,982.1328" style="stroke:#1963A0;stroke-width:1.0;"/><text fill="#000000" font-family="sans-serif" font-size="14" lengthAdjust="spacing" text-decoration="underline" textLength="97" x="648.5" y="984.3613">Initialize() : void</text><polygon fill="#4177AF" points="639.5,993.7422,635.5,999.7422,643.5,999.7422" style="stroke:#1963A0;stroke-width:1.0;"/><text fill="#000000" font-family="sans-serif" font-size="14" lengthAdjust="spacing" text-decoration="underline" textLength="88" x="648.5" y="1001.9707">Switch() : void</text></g><!--class AppSettings--><g id="elem_AppSettings"><rect codeLine="114" fill="#F1F1F1" height="57.6094" id="AppSettings" rx="2.5" ry="2.5" style="stroke:#181818;stroke-width:0.5;" width="285" x="774" y="229.6094"/><ellipse cx="874.25" cy="245.6094" fill="#ADD1B2" rx="11" ry="11" style="stroke:#181818;stroke-width:1.0;"/><path d="M877.0156,241.4844 Q877.1719,241.2656 877.3594,241.1563 Q877.5469,241.0469 877.7656,241.0469 Q878.1406,241.0469 878.375,241.3125 Q878.6094,241.5625 878.6094,242.1719 L878.6094,243.625 Q878.6094,244.2344 878.375,244.5 Q878.1406,244.7656 877.7656,244.7656 Q877.4219,244.7656 877.2188,244.5625 Q877.0156,244.375 876.9063,243.8594 Q876.8594,243.5 876.6719,243.3125 Q876.3438,242.9375 875.7344,242.7188 Q875.125,242.5 874.5,242.5 Q873.7344,242.5 873.0938,242.8281 Q872.4688,243.1563 871.9688,243.9063 Q871.4844,244.6563 871.4844,245.6875 L871.4844,246.7813 Q871.4844,248.0156 872.375,248.8438 Q873.2656,249.6563 874.8594,249.6563 Q875.7969,249.6563 876.4531,249.4063 Q876.8438,249.25 877.2656,248.8125 Q877.5313,248.5469 877.6719,248.4688 Q877.8281,248.3906 878.0313,248.3906 Q878.3594,248.3906 878.6094,248.6563 Q878.875,248.9063 878.875,249.25 Q878.875,249.5938 878.5313,250 Q878.0313,250.5781 877.2344,250.9063 Q876.1563,251.3594 874.8594,251.3594 Q873.3438,251.3594 872.1406,250.7344 Q871.1563,250.2344 870.4688,249.1719 Q869.7813,248.0938 869.7813,246.8125 L869.7813,245.6563 Q869.7813,244.3281 870.3906,243.1875 Q871.0156,242.0313 872.1094,241.4219 Q873.2031,240.7969 874.4375,240.7969 Q875.1719,240.7969 875.8125,240.9688 Q876.4688,241.125 877.0156,241.4844 Z " fill="#000000"/><text fill="#000000" font-family="sans-serif" font-size="14" lengthAdjust="spacing" textLength="76" x="894.75" y="251.3379">AppSettings</text><line style="stroke:#181818;stroke-width:0.5;" x1="775" x2="1058" y1="261.6094" y2="261.6094"/><ellipse cx="785" cy="275.9141" fill="#84BE84" rx="3" ry="3" style="stroke:#038048;stroke-width:1.0;"/><text fill="#000000" font-family="sans-serif" font-size="14" lengthAdjust="spacing" textLength="259" x="794" y="280.1426">BuildWebCamSource() : WebCamSource</text></g><!--class Screen--><g id="elem_Screen"><rect codeLine="120" fill="#F1F1F1" height="153.6563" id="Screen" rx="2.5" ry="2.5" style="stroke:#181818;stroke-width:0.5;" width="154" x="465.5" y="1651.1094"/><ellipse cx="515.75" cy="1667.1094" fill="#ADD1B2" rx="11" ry="11" style="stroke:#181818;stroke-width:1.0;"/><path d="M518.5156,1662.9844 Q518.6719,1662.7656 518.8594,1662.6563 Q519.0469,1662.5469 519.2656,1662.5469 Q519.6406,1662.5469 519.875,1662.8125 Q520.1094,1663.0625 520.1094,1663.6719 L520.1094,1665.125 Q520.1094,1665.7344 519.875,1666 Q519.6406,1666.2656 519.2656,1666.2656 Q518.9219,1666.2656 518.7188,1666.0625 Q518.5156,1665.875 518.4063,1665.3594 Q518.3594,1665 518.1719,1664.8125 Q517.8438,1664.4375 517.2344,1664.2188 Q516.625,1664 516,1664 Q515.2344,1664 514.5938,1664.3281 Q513.9688,1664.6563 513.4688,1665.4063 Q512.9844,1666.1563 512.9844,1667.1875 L512.9844,1668.2813 Q512.9844,1669.5156 513.875,1670.3438 Q514.7656,1671.1563 516.3594,1671.1563 Q517.2969,1671.1563 517.9531,1670.9063 Q518.3438,1670.75 518.7656,1670.3125 Q519.0313,1670.0469 519.1719,1669.9688 Q519.3281,1669.8906 519.5313,1669.8906 Q519.8594,1669.8906 520.1094,1670.1563 Q520.375,1670.4063 520.375,1670.75 Q520.375,1671.0938 520.0313,1671.5 Q519.5313,1672.0781 518.7344,1672.4063 Q517.6563,1672.8594 516.3594,1672.8594 Q514.8438,1672.8594 513.6406,1672.2344 Q512.6563,1671.7344 511.9688,1670.6719 Q511.2813,1669.5938 511.2813,1668.3125 L511.2813,1667.1563 Q511.2813,1665.8281 511.8906,1664.6875 Q512.5156,1663.5313 513.6094,1662.9219 Q514.7031,1662.2969 515.9375,1662.2969 Q516.6719,1662.2969 517.3125,1662.4688 Q517.9688,1662.625 518.5156,1662.9844 Z " fill="#000000"/><text fill="#000000" font-family="sans-serif" font-size="14" lengthAdjust="spacing" textLength="45" x="536.25" y="1672.8379">Screen</text><line style="stroke:#181818;stroke-width:0.5;" x1="466.5" x2="618.5" y1="1683.1094" y2="1683.1094"/><rect fill="none" height="6" style="stroke:#C82930;stroke-width:1.0;" width="6" x="473.5" y="1694.4141"/><text fill="#000000" font-family="sans-serif" font-size="14" lengthAdjust="spacing" textLength="128" x="485.5" y="1701.6426">_screen : RawImage</text><ellipse cx="476.5" cy="1715.0234" fill="none" rx="3" ry="3" style="stroke:#038048;stroke-width:1.0;"/><text fill="#000000" font-family="sans-serif" font-size="14" lengthAdjust="spacing" textLength="103" x="485.5" y="1719.252">texture : Texture</text><line style="stroke:#181818;stroke-width:0.5;" x1="466.5" x2="618.5" y1="1726.3281" y2="1726.3281"/><ellipse cx="476.5" cy="1740.6328" fill="#84BE84" rx="3" ry="3" style="stroke:#038048;stroke-width:1.0;"/><text fill="#000000" font-family="sans-serif" font-size="14" lengthAdjust="spacing" textLength="97" x="485.5" y="1744.8613">Initialize() : void</text><ellipse cx="476.5" cy="1758.2422" fill="#84BE84" rx="3" ry="3" style="stroke:#038048;stroke-width:1.0;"/><text fill="#000000" font-family="sans-serif" font-size="14" lengthAdjust="spacing" textLength="90" x="485.5" y="1762.4707">Resize() : void</text><ellipse cx="476.5" cy="1775.8516" fill="#84BE84" rx="3" ry="3" style="stroke:#038048;stroke-width:1.0;"/><text fill="#000000" font-family="sans-serif" font-size="14" lengthAdjust="spacing" textLength="90" x="485.5" y="1780.0801">Rotate() : void</text><ellipse cx="476.5" cy="1793.4609" fill="#84BE84" rx="3" ry="3" style="stroke:#038048;stroke-width:1.0;"/><text fill="#000000" font-family="sans-serif" font-size="14" lengthAdjust="spacing" textLength="113" x="485.5" y="1797.6895">ReadSync() : void</text></g><!--class VisionTaskApiRunner--><g id="elem_VisionTaskApiRunner"><rect codeLine="169" fill="#F1F1F1" height="188.875" id="VisionTaskApiRunner" rx="2.5" ry="2.5" style="stroke:#181818;stroke-width:0.5;" width="241" x="741" y="1633.6094"/><ellipse cx="788.75" cy="1649.6094" fill="#A9DCDF" rx="11" ry="11" style="stroke:#181818;stroke-width:1.0;"/><path d="M790.9375,1651.375 L786.7969,1651.375 L786.375,1652.4063 L786.7969,1652.4063 Q787.4063,1652.4063 787.6719,1652.6406 Q787.9375,1652.875 787.9375,1653.2656 Q787.9375,1653.6406 787.6719,1653.875 Q787.4063,1654.1094 786.7969,1654.1094 L784.5,1654.1094 Q783.8906,1654.1094 783.6406,1653.875 Q783.375,1653.6406 783.375,1653.25 Q783.375,1652.875 783.6563,1652.6406 Q783.9219,1652.3906 784.5469,1652.4063 L787.2188,1645.75 L786.1094,1645.75 Q785.5,1645.75 785.2344,1645.5156 Q784.9688,1645.2813 784.9688,1644.8906 Q784.9688,1644.5156 785.2344,1644.2813 Q785.5,1644.0469 786.1094,1644.0469 L789.7813,1644.0469 L793.1719,1652.4063 Q793.7656,1652.4063 793.9531,1652.5469 Q794.3438,1652.8125 794.3438,1653.2656 Q794.3438,1653.6406 794.0781,1653.875 Q793.8281,1654.1094 793.2188,1654.1094 L790.9219,1654.1094 Q790.3125,1654.1094 790.0469,1653.875 Q789.7813,1653.6406 789.7813,1653.25 Q789.7813,1652.875 790.0469,1652.6406 Q790.3125,1652.4063 790.9219,1652.4063 L791.3438,1652.4063 L790.9375,1651.375 Z M790.2188,1649.6719 L788.8594,1646.2969 L787.4844,1649.6719 L790.2188,1649.6719 Z " fill="#000000"/><text fill="#000000" font-family="sans-serif" font-size="14" font-style="italic" lengthAdjust="spacing" textLength="137" x="809.25" y="1655.3379">VisionTaskApiRunner</text><line style="stroke:#181818;stroke-width:0.5;" x1="742" x2="981" y1="1665.6094" y2="1665.6094"/><polygon fill="none" points="752,1674.9141,756,1678.9141,752,1682.9141,748,1678.9141" style="stroke:#B38D22;stroke-width:1.0;"/><text fill="#000000" font-family="sans-serif" font-size="14" lengthAdjust="spacing" textLength="100" x="761" y="1684.1426">screen : Screen</text><ellipse cx="752" cy="1697.5234" fill="none" rx="3" ry="3" style="stroke:#038048;stroke-width:1.0;"/><text fill="#000000" font-family="sans-serif" font-size="14" lengthAdjust="spacing" textLength="183" x="761" y="1701.752">runningMode : RunningMode</text><line style="stroke:#181818;stroke-width:0.5;" x1="742" x2="981" y1="1708.8281" y2="1708.8281"/><ellipse cx="752" cy="1723.1328" fill="#84BE84" rx="3" ry="3" style="stroke:#038048;stroke-width:1.0;"/><text fill="#000000" font-family="sans-serif" font-size="14" lengthAdjust="spacing" textLength="75" x="761" y="1727.3613">Play() : void</text><ellipse cx="752" cy="1740.7422" fill="#84BE84" rx="3" ry="3" style="stroke:#038048;stroke-width:1.0;"/><text fill="#000000" font-family="sans-serif" font-size="14" lengthAdjust="spacing" textLength="88" x="761" y="1744.9707">Pause() : void</text><ellipse cx="752" cy="1758.3516" fill="#84BE84" rx="3" ry="3" style="stroke:#038048;stroke-width:1.0;"/><text fill="#000000" font-family="sans-serif" font-size="14" lengthAdjust="spacing" textLength="100" x="761" y="1762.5801">Resume() : void</text><ellipse cx="752" cy="1775.9609" fill="#84BE84" rx="3" ry="3" style="stroke:#038048;stroke-width:1.0;"/><text fill="#000000" font-family="sans-serif" font-size="14" lengthAdjust="spacing" textLength="77" x="761" y="1780.1895">Stop() : void</text><polygon fill="#FFFF44" points="752,1788.5703,756,1792.5703,752,1796.5703,748,1792.5703" style="stroke:#B38D22;stroke-width:1.0;"/><text fill="#000000" font-family="sans-serif" font-size="14" font-style="italic" lengthAdjust="spacing" textLength="126" x="761" y="1797.7988">Run() : IEnumerator</text><polygon fill="#FFFF44" points="752,1806.1797,756,1810.1797,752,1814.1797,748,1810.1797" style="stroke:#B38D22;stroke-width:1.0;"/><text fill="#000000" font-family="sans-serif" font-size="14" lengthAdjust="spacing" textLength="215" x="761" y="1815.4082">SetupAnnotationController() : void</text></g><!--class HandLandmarker--><g id="elem_HandLandmarker"><rect codeLine="191" fill="#F1F1F1" height="110.4375" id="HandLandmarker" rx="2.5" ry="2.5" style="stroke:#181818;stroke-width:0.5;" width="446" x="1026.5" y="1397.6094"/><ellipse cx="1190.75" cy="1413.6094" fill="#ADD1B2" rx="11" ry="11" style="stroke:#181818;stroke-width:1.0;"/><path d="M1193.5156,1409.4844 Q1193.6719,1409.2656 1193.8594,1409.1563 Q1194.0469,1409.0469 1194.2656,1409.0469 Q1194.6406,1409.0469 1194.875,1409.3125 Q1195.1094,1409.5625 1195.1094,1410.1719 L1195.1094,1411.625 Q1195.1094,1412.2344 1194.875,1412.5 Q1194.6406,1412.7656 1194.2656,1412.7656 Q1193.9219,1412.7656 1193.7188,1412.5625 Q1193.5156,1412.375 1193.4063,1411.8594 Q1193.3594,1411.5 1193.1719,1411.3125 Q1192.8438,1410.9375 1192.2344,1410.7188 Q1191.625,1410.5 1191,1410.5 Q1190.2344,1410.5 1189.5938,1410.8281 Q1188.9688,1411.1563 1188.4688,1411.9063 Q1187.9844,1412.6563 1187.9844,1413.6875 L1187.9844,1414.7813 Q1187.9844,1416.0156 1188.875,1416.8438 Q1189.7656,1417.6563 1191.3594,1417.6563 Q1192.2969,1417.6563 1192.9531,1417.4063 Q1193.3438,1417.25 1193.7656,1416.8125 Q1194.0313,1416.5469 1194.1719,1416.4688 Q1194.3281,1416.3906 1194.5313,1416.3906 Q1194.8594,1416.3906 1195.1094,1416.6563 Q1195.375,1416.9063 1195.375,1417.25 Q1195.375,1417.5938 1195.0313,1418 Q1194.5313,1418.5781 1193.7344,1418.9063 Q1192.6563,1419.3594 1191.3594,1419.3594 Q1189.8438,1419.3594 1188.6406,1418.7344 Q1187.6563,1418.2344 1186.9688,1417.1719 Q1186.2813,1416.0938 1186.2813,1414.8125 L1186.2813,1413.6563 Q1186.2813,1412.3281 1186.8906,1411.1875 Q1187.5156,1410.0313 1188.6094,1409.4219 Q1189.7031,1408.7969 1190.9375,1408.7969 Q1191.6719,1408.7969 1192.3125,1408.9688 Q1192.9688,1409.125 1193.5156,1409.4844 Z " fill="#000000"/><text fill="#000000" font-family="sans-serif" font-size="14" lengthAdjust="spacing" textLength="109" x="1211.25" y="1419.3379">HandLandmarker</text><line style="stroke:#181818;stroke-width:0.5;" x1="1027.5" x2="1471.5" y1="1429.6094" y2="1429.6094"/><ellipse cx="1037.5" cy="1443.9141" fill="#84BE84" rx="3" ry="3" style="stroke:#038048;stroke-width:1.0;"/><text fill="#000000" font-family="sans-serif" font-size="14" lengthAdjust="spacing" textLength="127" x="1046.5" y="1448.1426">DetectAsync() : void</text><rect fill="#F24D5C" height="6" style="stroke:#C82930;stroke-width:1.0;" width="6" x="1034.5" y="1458.5234"/><text fill="#000000" font-family="sans-serif" font-size="14" lengthAdjust="spacing" textLength="420" x="1046.5" y="1465.752">BuildPacketsCallback() : Tasks.Core.TaskRunner.PacketsCallback</text><rect fill="#F24D5C" height="6" style="stroke:#C82930;stroke-width:1.0;" width="6" x="1034.5" y="1476.1328"/><text fill="#000000" font-family="sans-serif" font-size="14" lengthAdjust="spacing" textLength="250" x="1046.5" y="1483.3613">TryBuildHandLandmarkerResult() : bool</text><ellipse cx="1037.5" cy="1496.7422" fill="#84BE84" rx="3" ry="3" style="stroke:#038048;stroke-width:1.0;"/><text fill="#000000" font-family="sans-serif" font-size="14" lengthAdjust="spacing" textLength="256" x="1046.5" y="1500.9707">CreateFromOptions() : HandLandmarker</text></g><!--class DisposableObject--><g id="elem_DisposableObject"><rect codeLine="135" fill="#F1F1F1" height="32" id="DisposableObject" rx="2.5" ry="2.5" style="stroke:#181818;stroke-width:0.5;" width="143" x="1592" y="347.6094"/><ellipse cx="1607" cy="363.6094" fill="#A9DCDF" rx="11" ry="11" style="stroke:#181818;stroke-width:1.0;"/><path d="M1609.1875,365.375 L1605.0469,365.375 L1604.625,366.4063 L1605.0469,366.4063 Q1605.6563,366.4063 1605.9219,366.6406 Q1606.1875,366.875 1606.1875,367.2656 Q1606.1875,367.6406 1605.9219,367.875 Q1605.6563,368.1094 1605.0469,368.1094 L1602.75,368.1094 Q1602.1406,368.1094 1601.8906,367.875 Q1601.625,367.6406 1601.625,367.25 Q1601.625,366.875 1601.9063,366.6406 Q1602.1719,366.3906 1602.7969,366.4063 L1605.4688,359.75 L1604.3594,359.75 Q1603.75,359.75 1603.4844,359.5156 Q1603.2188,359.2813 1603.2188,358.8906 Q1603.2188,358.5156 1603.4844,358.2813 Q1603.75,358.0469 1604.3594,358.0469 L1608.0313,358.0469 L1611.4219,366.4063 Q1612.0156,366.4063 1612.2031,366.5469 Q1612.5938,366.8125 1612.5938,367.2656 Q1612.5938,367.6406 1612.3281,367.875 Q1612.0781,368.1094 1611.4688,368.1094 L1609.1719,368.1094 Q1608.5625,368.1094 1608.2969,367.875 Q1608.0313,367.6406 1608.0313,367.25 Q1608.0313,366.875 1608.2969,366.6406 Q1608.5625,366.4063 1609.1719,366.4063 L1609.5938,366.4063 L1609.1875,365.375 Z M1608.4688,363.6719 L1607.1094,360.2969 L1605.7344,363.6719 L1608.4688,363.6719 Z " fill="#000000"/><text fill="#000000" font-family="sans-serif" font-size="14" font-style="italic" lengthAdjust="spacing" textLength="111" x="1621" y="369.3379">DisposableObject</text></g><!--class MpResourceHandle--><g id="elem_MpResourceHandle"><rect codeLine="139" fill="#F1F1F1" height="57.6094" id="MpResourceHandle" rx="2.5" ry="2.5" style="stroke:#181818;stroke-width:0.5;" width="172" x="1570.5" y="483.6094"/><ellipse cx="1591.8" cy="499.6094" fill="#A9DCDF" rx="11" ry="11" style="stroke:#181818;stroke-width:1.0;"/><path d="M1593.9875,501.375 L1589.8469,501.375 L1589.425,502.4063 L1589.8469,502.4063 Q1590.4563,502.4063 1590.7219,502.6406 Q1590.9875,502.875 1590.9875,503.2656 Q1590.9875,503.6406 1590.7219,503.875 Q1590.4563,504.1094 1589.8469,504.1094 L1587.55,504.1094 Q1586.9406,504.1094 1586.6906,503.875 Q1586.425,503.6406 1586.425,503.25 Q1586.425,502.875 1586.7063,502.6406 Q1586.9719,502.3906 1587.5969,502.4063 L1590.2688,495.75 L1589.1594,495.75 Q1588.55,495.75 1588.2844,495.5156 Q1588.0188,495.2813 1588.0188,494.8906 Q1588.0188,494.5156 1588.2844,494.2813 Q1588.55,494.0469 1589.1594,494.0469 L1592.8313,494.0469 L1596.2219,502.4063 Q1596.8156,502.4063 1597.0031,502.5469 Q1597.3938,502.8125 1597.3938,503.2656 Q1597.3938,503.6406 1597.1281,503.875 Q1596.8781,504.1094 1596.2688,504.1094 L1593.9719,504.1094 Q1593.3625,504.1094 1593.0969,503.875 Q1592.8313,503.6406 1592.8313,503.25 Q1592.8313,502.875 1593.0969,502.6406 Q1593.3625,502.4063 1593.9719,502.4063 L1594.3938,502.4063 L1593.9875,501.375 Z M1593.2688,499.6719 L1591.9094,496.2969 L1590.5344,499.6719 L1593.2688,499.6719 Z " fill="#000000"/><text fill="#000000" font-family="sans-serif" font-size="14" font-style="italic" lengthAdjust="spacing" textLength="126" x="1607.2" y="505.3379">MpResourceHandle</text><line style="stroke:#181818;stroke-width:0.5;" x1="1571.5" x2="1741.5" y1="515.6094" y2="515.6094"/><polygon fill="#FFFF44" points="1581.5,524.9141,1585.5,528.9141,1581.5,532.9141,1577.5,528.9141" style="stroke:#B38D22;stroke-width:1.0;"/><text fill="#000000" font-family="sans-serif" font-size="14" lengthAdjust="spacing" textLength="146" x="1590.5" y="534.1426">AssertStatusOk() : void</text></g><!--class UnsafeNativeMethods--><g id="elem_UnsafeNativeMethods"><rect codeLine="143" fill="#F1F1F1" height="75.2188" id="UnsafeNativeMethods" rx="2.5" ry="2.5" style="stroke:#181818;stroke-width:0.5;" width="437" x="1084" y="693.6094"/><ellipse cx="1229.75" cy="709.6094" fill="#ADD1B2" rx="11" ry="11" style="stroke:#181818;stroke-width:1.0;"/><path d="M1232.5156,705.4844 Q1232.6719,705.2656 1232.8594,705.1563 Q1233.0469,705.0469 1233.2656,705.0469 Q1233.6406,705.0469 1233.875,705.3125 Q1234.1094,705.5625 1234.1094,706.1719 L1234.1094,707.625 Q1234.1094,708.2344 1233.875,708.5 Q1233.6406,708.7656 1233.2656,708.7656 Q1232.9219,708.7656 1232.7188,708.5625 Q1232.5156,708.375 1232.4063,707.8594 Q1232.3594,707.5 1232.1719,707.3125 Q1231.8438,706.9375 1231.2344,706.7188 Q1230.625,706.5 1230,706.5 Q1229.2344,706.5 1228.5938,706.8281 Q1227.9688,707.1563 1227.4688,707.9063 Q1226.9844,708.6563 1226.9844,709.6875 L1226.9844,710.7813 Q1226.9844,712.0156 1227.875,712.8438 Q1228.7656,713.6563 1230.3594,713.6563 Q1231.2969,713.6563 1231.9531,713.4063 Q1232.3438,713.25 1232.7656,712.8125 Q1233.0313,712.5469 1233.1719,712.4688 Q1233.3281,712.3906 1233.5313,712.3906 Q1233.8594,712.3906 1234.1094,712.6563 Q1234.375,712.9063 1234.375,713.25 Q1234.375,713.5938 1234.0313,714 Q1233.5313,714.5781 1232.7344,714.9063 Q1231.6563,715.3594 1230.3594,715.3594 Q1228.8438,715.3594 1227.6406,714.7344 Q1226.6563,714.2344 1225.9688,713.1719 Q1225.2813,712.0938 1225.2813,710.8125 L1225.2813,709.6563 Q1225.2813,708.3281 1225.8906,707.1875 Q1226.5156,706.0313 1227.6094,705.4219 Q1228.7031,704.7969 1229.9375,704.7969 Q1230.6719,704.7969 1231.3125,704.9688 Q1231.9688,705.125 1232.5156,705.4844 Z " fill="#000000"/><text fill="#000000" font-family="sans-serif" font-size="14" lengthAdjust="spacing" textLength="137" x="1250.25" y="715.3379">UnsafeNativeMethods</text><line style="stroke:#181818;stroke-width:0.5;" x1="1085" x2="1520" y1="725.6094" y2="725.6094"/><ellipse cx="1095" cy="739.9141" fill="#84BE84" rx="3" ry="3" style="stroke:#038048;stroke-width:1.0;"/><text fill="#000000" font-family="sans-serif" font-size="14" lengthAdjust="spacing" textLength="411" x="1104" y="744.1426">mp_tasks_core_TaskRunner__Process__Ppm() : MpReturnCode</text><ellipse cx="1095" cy="757.5234" fill="#84BE84" rx="3" ry="3" style="stroke:#038048;stroke-width:1.0;"/><text fill="#000000" font-family="sans-serif" font-size="14" lengthAdjust="spacing" textLength="393" x="1104" y="761.752">mp_tasks_core_TaskRunner__Send__Ppm() : MpReturnCode</text></g><!--class TaskRunner--><g id="elem_TaskRunner"><rect codeLine="153" fill="#F1F1F1" height="145.6563" id="TaskRunner" rx="2.5" ry="2.5" style="stroke:#181818;stroke-width:0.5;" width="297" x="1445" y="876.6094"/><ellipse cx="1550.25" cy="892.6094" fill="#ADD1B2" rx="11" ry="11" style="stroke:#181818;stroke-width:1.0;"/><path d="M1553.0156,888.4844 Q1553.1719,888.2656 1553.3594,888.1563 Q1553.5469,888.0469 1553.7656,888.0469 Q1554.1406,888.0469 1554.375,888.3125 Q1554.6094,888.5625 1554.6094,889.1719 L1554.6094,890.625 Q1554.6094,891.2344 1554.375,891.5 Q1554.1406,891.7656 1553.7656,891.7656 Q1553.4219,891.7656 1553.2188,891.5625 Q1553.0156,891.375 1552.9063,890.8594 Q1552.8594,890.5 1552.6719,890.3125 Q1552.3438,889.9375 1551.7344,889.7188 Q1551.125,889.5 1550.5,889.5 Q1549.7344,889.5 1549.0938,889.8281 Q1548.4688,890.1563 1547.9688,890.9063 Q1547.4844,891.6563 1547.4844,892.6875 L1547.4844,893.7813 Q1547.4844,895.0156 1548.375,895.8438 Q1549.2656,896.6563 1550.8594,896.6563 Q1551.7969,896.6563 1552.4531,896.4063 Q1552.8438,896.25 1553.2656,895.8125 Q1553.5313,895.5469 1553.6719,895.4688 Q1553.8281,895.3906 1554.0313,895.3906 Q1554.3594,895.3906 1554.6094,895.6563 Q1554.875,895.9063 1554.875,896.25 Q1554.875,896.5938 1554.5313,897 Q1554.0313,897.5781 1553.2344,897.9063 Q1552.1563,898.3594 1550.8594,898.3594 Q1549.3438,898.3594 1548.1406,897.7344 Q1547.1563,897.2344 1546.4688,896.1719 Q1545.7813,895.0938 1545.7813,893.8125 L1545.7813,892.6563 Q1545.7813,891.3281 1546.3906,890.1875 Q1547.0156,889.0313 1548.1094,888.4219 Q1549.2031,887.7969 1550.4375,887.7969 Q1551.1719,887.7969 1551.8125,887.9688 Q1552.4688,888.125 1553.0156,888.4844 Z " fill="#000000"/><text fill="#000000" font-family="sans-serif" font-size="14" lengthAdjust="spacing" textLength="78" x="1570.75" y="898.3379">TaskRunner</text><line style="stroke:#181818;stroke-width:0.5;" x1="1446" x2="1741" y1="908.6094" y2="908.6094"/><ellipse cx="1456" cy="922.9141" fill="#84BE84" rx="3" ry="3" style="stroke:#038048;stroke-width:1.0;"/><text fill="#000000" font-family="sans-serif" font-size="14" lengthAdjust="spacing" textLength="143" x="1465" y="927.1426">Create() : TaskRunner</text><ellipse cx="1456" cy="940.5234" fill="#84BE84" rx="3" ry="3" style="stroke:#038048;stroke-width:1.0;"/><text fill="#000000" font-family="sans-serif" font-size="14" lengthAdjust="spacing" textLength="143" x="1465" y="944.752">Process() : PacketMap</text><ellipse cx="1456" cy="958.1328" fill="#84BE84" rx="3" ry="3" style="stroke:#038048;stroke-width:1.0;"/><text fill="#000000" font-family="sans-serif" font-size="14" lengthAdjust="spacing" textLength="81" x="1465" y="962.3613">Send() : void</text><ellipse cx="1456" cy="975.7422" fill="#84BE84" rx="3" ry="3" style="stroke:#038048;stroke-width:1.0;"/><text fill="#000000" font-family="sans-serif" font-size="14" lengthAdjust="spacing" textLength="84" x="1465" y="979.9707">Close() : void</text><ellipse cx="1456" cy="993.3516" fill="#84BE84" rx="3" ry="3" style="stroke:#038048;stroke-width:1.0;"/><text fill="#000000" font-family="sans-serif" font-size="14" lengthAdjust="spacing" textLength="94" x="1465" y="997.5801">Restart() : void</text><ellipse cx="1456" cy="1010.9609" fill="#84BE84" rx="3" ry="3" style="stroke:#038048;stroke-width:1.0;"/><text fill="#000000" font-family="sans-serif" font-size="14" lengthAdjust="spacing" textLength="271" x="1465" y="1015.1895">GetGraphConfig() : CalculatorGraphConfig</text></g><!--class PacketMap--><g id="elem_PacketMap"><rect fill="#F1F1F1" height="32" id="PacketMap" rx="2.5" ry="2.5" style="stroke:#181818;stroke-width:0.5;" width="102" x="1556.5" y="715.1094"/><ellipse cx="1571.5" cy="731.1094" fill="#ADD1B2" rx="11" ry="11" style="stroke:#181818;stroke-width:1.0;"/><path d="M1574.2656,726.9844 Q1574.4219,726.7656 1574.6094,726.6563 Q1574.7969,726.5469 1575.0156,726.5469 Q1575.3906,726.5469 1575.625,726.8125 Q1575.8594,727.0625 1575.8594,727.6719 L1575.8594,729.125 Q1575.8594,729.7344 1575.625,730 Q1575.3906,730.2656 1575.0156,730.2656 Q1574.6719,730.2656 1574.4688,730.0625 Q1574.2656,729.875 1574.1563,729.3594 Q1574.1094,729 1573.9219,728.8125 Q1573.5938,728.4375 1572.9844,728.2188 Q1572.375,728 1571.75,728 Q1570.9844,728 1570.3438,728.3281 Q1569.7188,728.6563 1569.2188,729.4063 Q1568.7344,730.1563 1568.7344,731.1875 L1568.7344,732.2813 Q1568.7344,733.5156 1569.625,734.3438 Q1570.5156,735.1563 1572.1094,735.1563 Q1573.0469,735.1563 1573.7031,734.9063 Q1574.0938,734.75 1574.5156,734.3125 Q1574.7813,734.0469 1574.9219,733.9688 Q1575.0781,733.8906 1575.2813,733.8906 Q1575.6094,733.8906 1575.8594,734.1563 Q1576.125,734.4063 1576.125,734.75 Q1576.125,735.0938 1575.7813,735.5 Q1575.2813,736.0781 1574.4844,736.4063 Q1573.4063,736.8594 1572.1094,736.8594 Q1570.5938,736.8594 1569.3906,736.2344 Q1568.4063,735.7344 1567.7188,734.6719 Q1567.0313,733.5938 1567.0313,732.3125 L1567.0313,731.1563 Q1567.0313,729.8281 1567.6406,728.6875 Q1568.2656,727.5313 1569.3594,726.9219 Q1570.4531,726.2969 1571.6875,726.2969 Q1572.4219,726.2969 1573.0625,726.4688 Q1573.7188,726.625 1574.2656,726.9844 Z " fill="#000000"/><text fill="#000000" font-family="sans-serif" font-size="14" lengthAdjust="spacing" textLength="70" x="1585.5" y="736.8379">PacketMap</text></g><!--class HandLandmarkerRunner--><g id="elem_HandLandmarkerRunner"><rect codeLine="198" fill="#F1F1F1" height="118.4375" id="HandLandmarkerRunner" rx="2.5" ry="2.5" style="stroke:#181818;stroke-width:0.5;" width="292" x="532.5" y="1882.6094"/><ellipse cx="596.25" cy="1898.6094" fill="#ADD1B2" rx="11" ry="11" style="stroke:#181818;stroke-width:1.0;"/><path d="M599.0156,1894.4844 Q599.1719,1894.2656 599.3594,1894.1563 Q599.5469,1894.0469 599.7656,1894.0469 Q600.1406,1894.0469 600.375,1894.3125 Q600.6094,1894.5625 600.6094,1895.1719 L600.6094,1896.625 Q600.6094,1897.2344 600.375,1897.5 Q600.1406,1897.7656 599.7656,1897.7656 Q599.4219,1897.7656 599.2188,1897.5625 Q599.0156,1897.375 598.9063,1896.8594 Q598.8594,1896.5 598.6719,1896.3125 Q598.3438,1895.9375 597.7344,1895.7188 Q597.125,1895.5 596.5,1895.5 Q595.7344,1895.5 595.0938,1895.8281 Q594.4688,1896.1563 593.9688,1896.9063 Q593.4844,1897.6563 593.4844,1898.6875 L593.4844,1899.7813 Q593.4844,1901.0156 594.375,1901.8438 Q595.2656,1902.6563 596.8594,1902.6563 Q597.7969,1902.6563 598.4531,1902.4063 Q598.8438,1902.25 599.2656,1901.8125 Q599.5313,1901.5469 599.6719,1901.4688 Q599.8281,1901.3906 600.0313,1901.3906 Q600.3594,1901.3906 600.6094,1901.6563 Q600.875,1901.9063 600.875,1902.25 Q600.875,1902.5938 600.5313,1903 Q600.0313,1903.5781 599.2344,1903.9063 Q598.1563,1904.3594 596.8594,1904.3594 Q595.3438,1904.3594 594.1406,1903.7344 Q593.1563,1903.2344 592.4688,1902.1719 Q591.7813,1901.0938 591.7813,1899.8125 L591.7813,1898.6563 Q591.7813,1897.3281 592.3906,1896.1875 Q593.0156,1895.0313 594.1094,1894.4219 Q595.2031,1893.7969 596.4375,1893.7969 Q597.1719,1893.7969 597.8125,1893.9688 Q598.4688,1894.125 599.0156,1894.4844 Z " fill="#000000"/><text fill="#000000" font-family="sans-serif" font-size="14" lengthAdjust="spacing" textLength="156" x="616.75" y="1904.3379">HandLandmarkerRunner</text><line style="stroke:#181818;stroke-width:0.5;" x1="533.5" x2="823.5" y1="1914.6094" y2="1914.6094"/><ellipse cx="543.5" cy="1928.9141" fill="none" rx="3" ry="3" style="stroke:#038048;stroke-width:1.0;"/><text fill="#000000" font-family="sans-serif" font-size="14" lengthAdjust="spacing" textLength="247" x="552.5" y="1933.1426">config : HandLandmarkDetectionConfig</text><line style="stroke:#181818;stroke-width:0.5;" x1="533.5" x2="823.5" y1="1940.2188" y2="1940.2188"/><ellipse cx="543.5" cy="1954.5234" fill="#84BE84" rx="3" ry="3" style="stroke:#038048;stroke-width:1.0;"/><text fill="#000000" font-family="sans-serif" font-size="14" lengthAdjust="spacing" textLength="77" x="552.5" y="1958.752">Stop() : void</text><polygon fill="#FFFF44" points="543.5,1967.1328,547.5,1971.1328,543.5,1975.1328,539.5,1971.1328" style="stroke:#B38D22;stroke-width:1.0;"/><text fill="#000000" font-family="sans-serif" font-size="14" lengthAdjust="spacing" textLength="125" x="552.5" y="1976.3613">Run() : IEnumerator</text><rect fill="#F24D5C" height="6" style="stroke:#C82930;stroke-width:1.0;" width="6" x="540.5" y="1986.7422"/><text fill="#000000" font-family="sans-serif" font-size="14" lengthAdjust="spacing" textLength="266" x="552.5" y="1993.9707">OnHandLandmarkDetectionOutput() : void</text></g><g id="elem_GMN67"><path d="M322,1928.6094 L322,1954.9609 A0,0 0 0 0 322,1954.9609 L497,1954.9609 A0,0 0 0 0 497,1954.9609 L497,1946.6094 L532.29,1941.6094 L497,1938.6094 L497,1938.6094 L487,1928.6094 L322,1928.6094 A0,0 0 0 0 322,1928.6094 " fill="#FEFFDD" style="stroke:#181818;stroke-width:0.5;"/><path d="M487,1928.6094 L487,1938.6094 L497,1938.6094 L487,1928.6094 " fill="#FEFFDD" style="stroke:#181818;stroke-width:0.5;"/><text fill="#000000" font-family="sans-serif" font-size="13" lengthAdjust="spacing" textLength="154" x="328" y="1947.1045">Attach to an empty object.</text></g><!--reverse link Object to Component--><g id="link_Object_Component"><path codeLine="6" d="M721.4813,91.4818 C707.0513,108.1318 695.89,121.0094 681.54,137.5694 " fill="none" id="Object-backto-Component" style="stroke:#181818;stroke-width:1.0;"/><polygon fill="none" points="733.27,77.8794,716.9471,87.5522,726.0154,95.4114,733.27,77.8794" style="stroke:#181818;stroke-width:1.0;"/></g><!--reverse link Object to ScriptableObject--><g id="link_Object_ScriptableObject"><path codeLine="7" d="M775.6854,90.2606 C793.2554,106.9106 808.14,121.0094 825.62,137.5694 " fill="none" id="Object-backto-ScriptableObject" style="stroke:#181818;stroke-width:1.0;"/><polygon fill="none" points="762.62,77.8794,771.5583,94.6158,779.8125,85.9055,762.62,77.8794" style="stroke:#181818;stroke-width:1.0;"/></g><!--reverse link Component to Behaviour--><g id="link_Component_Behaviour"><path codeLine="8" d="M657.5456,186.8512 C650.9256,206.3212 645.31,222.8494 638.69,242.3494 " fill="none" id="Component-backto-Behaviour" style="stroke:#181818;stroke-width:1.0;"/><polygon fill="none" points="663.34,169.8094,651.865,184.9198,663.2262,188.7827,663.34,169.8094" style="stroke:#181818;stroke-width:1.0;"/></g><!--reverse link Behaviour to MonoBehaviour--><g id="link_Behaviour_MonoBehaviour"><path codeLine="9" d="M616.1103,290.4949 C605.1503,309.9649 595.08,327.8494 584.09,347.3494 " fill="none" id="Behaviour-backto-MonoBehaviour" style="stroke:#181818;stroke-width:1.0;"/><polygon fill="none" points="624.94,274.8094,610.8818,287.5517,621.3388,293.4382,624.94,274.8094" style="stroke:#181818;stroke-width:1.0;"/></g><!--reverse link MonoBehaviour to ImageSource--><g id="link_MonoBehaviour_ImageSource"><path codeLine="11" d="M607.2162,391.4102 C624.2262,405.7902 637.34,416.8494 664.01,439.3794 " fill="none" id="MonoBehaviour-backto-ImageSource" style="stroke:#181818;stroke-width:1.0;"/><polygon fill="none" points="593.47,379.7894,603.3426,395.9922,611.0898,386.8281,593.47,379.7894" style="stroke:#181818;stroke-width:1.0;"/></g><!--reverse link MonoBehaviour to AnnotationController--><g id="link_MonoBehaviour_AnnotationController"><path codeLine="13" d="M530.7909,388.7714 C508.7309,401.7014 495.03,413.2894 478.5,439.6094 C384.2,589.7294 371.01,808.8194 369.99,902.8994 " fill="none" id="MonoBehaviour-backto-AnnotationController" style="stroke:#181818;stroke-width:1.0;"/><polygon fill="none" points="546.32,379.6694,527.7569,383.5951,533.8249,393.9478,546.32,379.6694" style="stroke:#181818;stroke-width:1.0;"/></g><!--reverse link AnnotationController to HandLandmarkerResultAnnotationController--><g id="link_AnnotationController_HandLandmarkerResultAnnotationController"><path codeLine="21" d="M349.641,1013.32 C336.631,1052.45 323.66,1091.4394 310.65,1130.5394 " fill="none" id="AnnotationController-backto-HandLandmarkerResultAnnotationController" style="stroke:#181818;stroke-width:1.0;"/><polygon fill="none" points="355.32,996.2394,343.9474,1011.427,355.3346,1015.213,355.32,996.2394" style="stroke:#181818;stroke-width:1.0;"/></g><!--reverse link MonoBehaviour to HierarchicalAnnotation--><g id="link_MonoBehaviour_HierarchicalAnnotation"><path codeLine="29" d="M519.1913,386.1048 C480.9713,400.8148 438.32,417.6894 387.5,439.6094 C344.18,458.2994 294.88,481.5394 263.74,496.4794 " fill="none" id="MonoBehaviour-backto-HierarchicalAnnotation" style="stroke:#181818;stroke-width:1.0;"/><polygon fill="none" points="535.99,379.6394,517.0361,380.5052,521.3464,391.7044,535.99,379.6394" style="stroke:#181818;stroke-width:1.0;"/></g><!--reverse link IHierachicalAnnotation to HierarchicalAnnotation--><g id="link_IHierachicalAnnotation_HierarchicalAnnotation"><path codeLine="30" d="M232.5,397.7894 C232.5,425.9594 232.5,468.0194 232.5,496.2894 " fill="none" id="IHierachicalAnnotation-backto-HierarchicalAnnotation" style="stroke:#181818;stroke-width:1.0;stroke-dasharray:7.0,7.0;"/><polygon fill="none" points="232.5,379.7894,226.5,397.7894,238.5,397.7894,232.5,379.7894" style="stroke:#181818;stroke-width:1.0;"/></g><!--reverse link HierarchicalAnnotation to ListAnnotation--><g id="link_HierarchicalAnnotation_ListAnnotation"><path codeLine="36" d="M220.4947,545.6889 C205.6247,585.4489 172.05,675.1694 157.19,714.8994 " fill="none" id="HierarchicalAnnotation-backto-ListAnnotation" style="stroke:#181818;stroke-width:1.0;"/><polygon fill="none" points="226.8,528.8294,214.8748,543.5871,226.1145,547.7907,226.8,528.8294" style="stroke:#181818;stroke-width:1.0;"/></g><!--reverse link ListAnnotation to MultiHandLandmarkListAnnotation--><g id="link_ListAnnotation_MultiHandLandmarkListAnnotation"><path codeLine="40" d="M148.2831,765.2454 C144.7931,801.2454 137.72,874.1394 133.23,920.4694 " fill="none" id="ListAnnotation-backto-MultiHandLandmarkListAnnotation" style="stroke:#181818;stroke-width:1.0;"/><polygon fill="none" points="150.02,747.3294,142.3111,764.6664,154.2551,765.8243,150.02,747.3294" style="stroke:#181818;stroke-width:1.0;"/></g><!--reverse link ImageSource to WebCamSource--><g id="link_ImageSource_WebCamSource"><path codeLine="55" d="M754.4928,603.672 C755.5528,622.862 755.72,625.7894 756.81,645.5794 " fill="none" id="ImageSource-backto-WebCamSource" style="stroke:#181818;stroke-width:1.0;"/><polygon fill="none" points="753.5,585.6994,748.5019,604.0029,760.4836,603.3411,753.5,585.6994" style="stroke:#181818;stroke-width:1.0;"/></g><!--reverse link IDisposable to BaseVisionTaskApi--><g id="link_IDisposable_BaseVisionTaskApi"><path codeLine="69" d="M1743.6547,291.3602 C1760.5947,330.0802 1795.5,419.1194 1795.5,511.6094 C1795.5,511.6094 1795.5,511.6094 1795.5,732.1094 C1795.5,862.2094 1818.87,906.8494 1759.5,1022.6094 C1731.91,1076.3994 1677.45,1121.0194 1638.42,1148.0394 " fill="none" id="IDisposable-backto-BaseVisionTaskApi" style="stroke:#181818;stroke-width:1.0;stroke-dasharray:7.0,7.0;"/><polygon fill="none" points="1736.44,274.8694,1738.1578,293.7651,1749.1517,288.9553,1736.44,274.8694" style="stroke:#181818;stroke-width:1.0;"/></g><!--reverse link MonoBehaviour to BaseRunner--><g id="link_MonoBehaviour_BaseRunner"><path codeLine="71" d="M575.5,397.9294 C575.5,448.1394 575.5,594.3194 575.5,730.1094 C575.5,730.1094 575.5,730.1094 575.5,950.6094 C575.5,1095.0794 666.31,1235.8094 745.59,1331.1394 " fill="none" id="MonoBehaviour-backto-BaseRunner" style="stroke:#181818;stroke-width:1.0;"/><polygon fill="none" points="575.5,379.9294,569.5,397.9294,581.5,397.9294,575.5,379.9294" style="stroke:#181818;stroke-width:1.0;"/></g><!--reverse link Bootstrap to BaseRunner--><g id="link_Bootstrap_BaseRunner"><path codeLine="87" d="M902.8322,1277.6867 C898.2722,1296.8667 894.81,1311.4594 890.07,1331.4094 " fill="none" id="Bootstrap-backto-BaseRunner" style="stroke:#181818;stroke-width:1.0;stroke-dasharray:7.0,7.0;"/><polygon fill="#181818" points="904.22,1271.8494,898.2468,1279.6801,903.0635,1276.7138,906.0298,1281.5305,904.22,1271.8494" style="stroke:#181818;stroke-width:1.0;"/></g><!--reverse link MonoBehaviour to Bootstrap--><g id="link_MonoBehaviour_Bootstrap"><path codeLine="89" d="M659.0979,375.0824 C737.3579,385.9824 843.53,405.6594 874.5,439.6094 C1035.84,616.4594 989.46,927.2194 952.56,1082.4094 " fill="none" id="MonoBehaviour-backto-Bootstrap" style="stroke:#181818;stroke-width:1.0;"/><polygon fill="none" points="641.27,372.5994,658.2702,381.0251,659.9256,369.1398,641.27,372.5994" style="stroke:#181818;stroke-width:1.0;"/></g><!--reverse link ImageSourceProvider to Bootstrap--><g id="link_ImageSourceProvider_Bootstrap"><path codeLine="102" d="M811.9062,1013.584 C827.7262,1036.034 842.79,1057.3894 860.4,1082.3694 " fill="none" id="ImageSourceProvider-backto-Bootstrap" style="stroke:#181818;stroke-width:1.0;stroke-dasharray:7.0,7.0;"/><polygon fill="#181818" points="808.45,1008.6794,810.3645,1018.3404,811.3301,1012.7665,816.904,1013.7322,808.45,1008.6794" style="stroke:#181818;stroke-width:1.0;"/></g><!--reverse link AppSettings to Bootstrap--><g id="link_AppSettings_Bootstrap"><path codeLine="111" d="M942.5965,292.7769 C975.8265,337.5369 1030.5,423.7394 1030.5,511.6094 C1030.5,511.6094 1030.5,511.6094 1030.5,732.1094 C1030.5,861.9094 1035.88,897.7294 1000.5,1022.6094 C994.86,1042.5294 986.76,1063.0394 977.99,1082.3194 " fill="none" id="AppSettings-backto-Bootstrap" style="stroke:#181818;stroke-width:1.0;stroke-dasharray:7.0,7.0;"/><polygon fill="#181818" points="939.02,287.9594,941.1731,297.57,942.0004,291.974,947.5965,292.8013,939.02,287.9594" style="stroke:#181818;stroke-width:1.0;"/></g><!--reverse link ScriptableObject to AppSettings--><g id="link_ScriptableObject_AppSettings"><path codeLine="112" d="M863.1654,184.3606 C874.5754,200.0306 882.03,210.2694 896.04,229.5194 " fill="none" id="ScriptableObject-backto-AppSettings" style="stroke:#181818;stroke-width:1.0;"/><polygon fill="none" points="852.57,169.8094,858.315,187.8924,868.0158,180.8288,852.57,169.8094" style="stroke:#181818;stroke-width:1.0;"/></g><!--reverse link MonoBehaviour to Screen--><g id="link_MonoBehaviour_Screen"><path codeLine="118" d="M564.7745,396.831 C548.4945,446.411 504.5,591.7794 504.5,730.1094 C504.5,730.1094 504.5,730.1094 504.5,1178.1094 C504.5,1347.2194 522.67,1544.9294 533.88,1650.8494 " fill="none" id="MonoBehaviour-backto-Screen" style="stroke:#181818;stroke-width:1.0;"/><polygon fill="none" points="570.39,379.7294,559.074,394.9592,570.4751,398.7029,570.39,379.7294" style="stroke:#181818;stroke-width:1.0;"/></g><!--reverse link BaseRunner to VisionTaskApiRunner--><g id="link_BaseRunner_VisionTaskApiRunner"><path codeLine="129" d="M861.5,1591.9694 C861.5,1611.8894 861.5,1614.2794 861.5,1633.4194 " fill="none" id="BaseRunner-backto-VisionTaskApiRunner" style="stroke:#181818;stroke-width:1.0;"/><polygon fill="none" points="861.5,1573.9694,855.5,1591.9694,867.5,1591.9694,861.5,1573.9694" style="stroke:#181818;stroke-width:1.0;"/></g><!--reverse link HandLandmarker to VisionTaskApiRunner--><g id="link_HandLandmarker_VisionTaskApiRunner"><path codeLine="131" d="M1167.936,1511.0964 C1113.606,1549.3964 1044.52,1598.0994 982.3,1641.9594 " fill="none" id="HandLandmarker-backto-VisionTaskApiRunner" style="stroke:#181818;stroke-width:1.0;stroke-dasharray:7.0,7.0;"/><polygon fill="#181818" points="1172.84,1507.6394,1163.1794,1509.5556,1168.7534,1510.5203,1167.7888,1516.0943,1172.84,1507.6394" style="stroke:#181818;stroke-width:1.0;"/></g><!--reverse link IDisposable to DisposableObject--><g id="link_IDisposable_DisposableObject"><path codeLine="133" d="M1710.0464,289.9635 C1697.5664,309.4335 1685.78,327.8494 1673.28,347.3494 " fill="none" id="IDisposable-backto-DisposableObject" style="stroke:#181818;stroke-width:1.0;stroke-dasharray:7.0,7.0;"/><polygon fill="none" points="1719.76,274.8094,1704.9951,286.7256,1715.0978,293.2013,1719.76,274.8094" style="stroke:#181818;stroke-width:1.0;"/></g><!--reverse link DisposableObject to MpResourceHandle--><g id="link_DisposableObject_MpResourceHandle"><path codeLine="137" d="M1661.9189,397.7688 C1660.7489,422.1988 1659.31,452.6294 1657.84,483.4994 " fill="none" id="DisposableObject-backto-MpResourceHandle" style="stroke:#181818;stroke-width:1.0;"/><polygon fill="none" points="1662.78,379.7894,1655.9258,397.4817,1667.9121,398.0558,1662.78,379.7894" style="stroke:#181818;stroke-width:1.0;"/></g><!--reverse link MpResourceHandle to TaskRunner--><g id="link_MpResourceHandle_TaskRunner"><path codeLine="148" d="M1669.2481,559.2748 C1683.5881,613.6748 1704.68,718.8394 1676.5,816.6094 C1670.54,837.2894 1660.28,857.8494 1648.96,876.3794 " fill="none" id="MpResourceHandle-backto-TaskRunner" style="stroke:#181818;stroke-width:1.0;"/><polygon fill="none" points="1664.66,541.8694,1663.4463,560.8042,1675.0499,557.7454,1664.66,541.8694" style="stroke:#181818;stroke-width:1.0;"/></g><!--reverse link MpResourceHandle to PacketMap--><g id="link_MpResourceHandle_PacketMap"><path codeLine="149" d="M1646.1188,559.4658 C1635.6188,605.8858 1619.05,679.0694 1610.93,714.9694 " fill="none" id="MpResourceHandle-backto-PacketMap" style="stroke:#181818;stroke-width:1.0;"/><polygon fill="none" points="1650.09,541.9094,1640.2666,558.1421,1651.971,560.7896,1650.09,541.9094" style="stroke:#181818;stroke-width:1.0;"/></g><!--reverse link UnsafeNativeMethods to TaskRunner--><g id="link_UnsafeNativeMethods_TaskRunner"><path codeLine="150" d="M1356.6744,772.4201 C1396.2444,801.8501 1448.16,840.4794 1496.71,876.5994 " fill="none" id="UnsafeNativeMethods-backto-TaskRunner" style="stroke:#181818;stroke-width:1.0;stroke-dasharray:7.0,7.0;"/><polygon fill="#181818" points="1351.86,768.8394,1356.6945,777.42,1355.872,771.8233,1361.4688,771.0008,1351.86,768.8394" style="stroke:#181818;stroke-width:1.0;"/></g><!--reverse link PacketMap to TaskRunner--><g id="link_PacketMap_TaskRunner"><path codeLine="151" d="M1606.1317,753.3168 C1604.4117,779.8368 1601.16,830.1094 1598.17,876.4194 " fill="none" id="PacketMap-backto-TaskRunner" style="stroke:#181818;stroke-width:1.0;stroke-dasharray:7.0,7.0;"/><polygon fill="#181818" points="1606.52,747.3294,1601.9459,756.0516,1606.1964,752.3189,1609.9291,756.5694,1606.52,747.3294" style="stroke:#181818;stroke-width:1.0;"/></g><!--reverse link BaseVisionTaskApi to HandLandmarker--><g id="link_BaseVisionTaskApi_HandLandmarker"><path codeLine="162" d="M1543.8906,1217.5516 C1487.3306,1262.5216 1389.9,1339.9894 1317.58,1397.4794 " fill="none" id="BaseVisionTaskApi-backto-HandLandmarker" style="stroke:#181818;stroke-width:1.0;"/><polygon fill="none" points="1557.98,1206.3494,1540.1566,1212.8552,1547.6247,1222.2481,1557.98,1206.3494" style="stroke:#181818;stroke-width:1.0;"/></g><!--reverse link TaskRunner to BaseVisionTaskApi--><g id="link_TaskRunner_BaseVisionTaskApi"><path codeLine="163" d="M1593.5,1028.8894 C1593.5,1071.3994 1593.5,1116.7594 1593.5,1147.9094 " fill="none" id="TaskRunner-backto-BaseVisionTaskApi" style="stroke:#181818;stroke-width:1.0;stroke-dasharray:7.0,7.0;"/><polygon fill="#181818" points="1593.5,1022.8894,1589.5,1031.8894,1593.5,1027.8894,1597.5,1031.8894,1593.5,1022.8894" style="stroke:#181818;stroke-width:1.0;"/></g><!--reverse link VisionTaskApiRunner to HandLandmarkerRunner--><g id="link_VisionTaskApiRunner_HandLandmarkerRunner"><path codeLine="180" d="M768.6525,1836.4115 C751.0625,1856.7415 744.73,1864.0594 728.74,1882.5394 " fill="none" id="VisionTaskApiRunner-backto-HandLandmarkerRunner" style="stroke:#181818;stroke-width:1.0;"/><polygon fill="none" points="780.43,1822.7994,764.1151,1832.4857,773.1898,1840.3373,780.43,1822.7994" style="stroke:#181818;stroke-width:1.0;"/></g><!--reverse link HandLandmarkerResultAnnotationController to HandLandmarkerRunner--><g id="link_HandLandmarkerResultAnnotationController_HandLandmarkerRunner"><path codeLine="182" d="M293.7704,1229.8187 C292.0704,1343.6387 302.6,1637.8394 447.5,1822.6094 C469.66,1850.8694 500.44,1872.9694 532.3,1890.0194 " fill="none" id="HandLandmarkerResultAnnotationController-backto-HandLandmarkerRunner" style="stroke:#181818;stroke-width:1.0;stroke-dasharray:7.0,7.0;"/><polygon fill="#181818" points="293.86,1223.8194,289.726,1232.7586,293.7853,1228.8188,297.7251,1232.8781,293.86,1223.8194" style="stroke:#181818;stroke-width:1.0;"/></g><!--reverse link MultiHandLandmarkListAnnotation to HandLandmarkerResultAnnotationController--><g id="link_MultiHandLandmarkListAnnotation_HandLandmarkerResultAnnotationController"><path codeLine="184" d="M154.6031,983.5515 C182.4231,1021.5715 228.84,1084.9994 262.08,1130.4394 " fill="none" id="MultiHandLandmarkListAnnotation-backto-HandLandmarkerResultAnnotationController" style="stroke:#181818;stroke-width:1.0;stroke-dasharray:7.0,7.0;"/><polygon fill="#181818" points="151.06,978.7094,153.1465,988.3347,154.0126,982.7445,159.6028,983.6105,151.06,978.7094" style="stroke:#181818;stroke-width:1.0;"/></g><!--reverse link HandLandmarker to HandLandmarkerRunner--><g id="link_HandLandmarker_HandLandmarkerRunner"><path codeLine="186" d="M1223.5846,1513.292 C1186.5846,1593.032 1109.82,1736.3194 999.5,1822.6094 C948.76,1862.2994 883.37,1889.5394 824.86,1907.7594 " fill="none" id="HandLandmarker-backto-HandLandmarkerRunner" style="stroke:#181818;stroke-width:1.0;stroke-dasharray:7.0,7.0;"/><polygon fill="#181818" points="1226.11,1507.8494,1218.6934,1514.3297,1224.0055,1512.3849,1225.9503,1517.6969,1226.11,1507.8494" style="stroke:#181818;stroke-width:1.0;"/></g><!--reverse link ImageSourceProvider to HandLandmarkerRunner--><g id="link_ImageSourceProvider_HandLandmarkerRunner"><path codeLine="187" d="M756.9839,1014.7843 C745.0739,1089.3743 725.86,1216.7994 714.5,1331.6094 C694.53,1533.4494 684.29,1774.0994 680.4,1882.5494 " fill="none" id="ImageSourceProvider-backto-HandLandmarkerRunner" style="stroke:#181818;stroke-width:1.0;stroke-dasharray:7.0,7.0;"/><polygon fill="#181818" points="757.93,1008.8594,752.561,1017.1161,757.1416,1013.7968,760.4609,1018.3775,757.93,1008.8594" style="stroke:#181818;stroke-width:1.0;"/></g><!--reverse link Screen to HandLandmarkerRunner--><g id="link_Screen_HandLandmarkerRunner"><path codeLine="188" d="M594.6549,1810.2162 C611.0249,1835.6762 625.76,1858.5894 641.11,1882.4594 " fill="none" id="Screen-backto-HandLandmarkerRunner" style="stroke:#181818;stroke-width:1.0;stroke-dasharray:7.0,7.0;"/><polygon fill="#181818" points="591.41,1805.1694,592.9129,1814.9029,594.1141,1809.3751,599.642,1810.5763,591.41,1805.1694" style="stroke:#181818;stroke-width:1.0;"/></g><!--reverse link WebCamSource to ImageSourceProvider--><g id="link_WebCamSource_ImageSourceProvider"><path codeLine="189" d="M764.0153,822.7371 C764.6953,847.4071 765.26,867.7994 765.89,890.4394 " fill="none" id="WebCamSource-backto-ImageSourceProvider" style="stroke:#181818;stroke-width:1.0;stroke-dasharray:7.0,7.0;"/><polygon fill="#181818" points="763.85,816.7394,760.0995,825.8462,763.9878,821.7375,768.0965,825.6257,763.85,816.7394" style="stroke:#181818;stroke-width:1.0;"/></g><!--SRC=[ZLXVR-Ce47_tfx2KbrkjaW-msfSstUr6Qffiqzu-HiIU95mnM82Ro_Lwd_q6S6p0kDrAhGmp33E_-KirrGpo9PIKh6aD-HEd-folMNEWFFz1U7c7lnMHpo2px4XBoA6gaQE2QWTIPTbgznSKEl_wxtIQpqLL2mvS1xkRGj9Qanq3jvjrR8v-3KVoGaKZi-xB4PQ2YvwO1Kl7iQZ80JQuB219l-9SQAAfu7F1jHIC6JF8Jcb9KBs24QMIJAzPZZ-JZIPI__4f_vA_25gwlJkYuQakyMz4UBt8VTkSUN4lJZtzBSjIjpWbGvGVG3LCfnLt-luklxFXyuqa9wEpZDHrDimRAT4JZqGU8BOqPKO2v1yK9975aHQ4zNfa2xiVR-EHsMpiIBRWgEUU592dJx- -3RoN5cKOqnIdynrLshyu4XgIZR1mfurF19xwteYbEc4Vi1atMIS5E4SAUO5k-RrO0uOvvKY-_poMDIDdIrfyuqs5e6WXGmuJH1MypxCcZHgxOQD5FKAw1Ns9CVXRDzA9QB-DfPvf3jPVi9kJwfBLpdv_pm0mtPxiJYi79VxorqQ5KM36u1W7OMZwmE2FpUn3-uQgMYXJ476xNxZKk2OA_gGA0-EHgEUhcYPppd0zD9mdobbFoX6fwVPQ26qOwdjI6Q3mc_A3eUmkbBM4FTaXxHPPsYATJpeo4ZeXk4-LnQF4RMHXML3vke8PG9WAHeVSEm6MZiy1BNB5nFC4hK1fKjLBoXXLK5Ws9epra- -KbvrLbj3RYExg5ldNrYajfcbtT4VRUEsFMn-Gkjw0reYxmekk-XLQGlaUKDi2bg8q_bduQqDNg2fLHm_mwPQgMoOE2spMb33w3_Ia5V_6JJHva4mDtz0fqnieiA47z_cdLXmLPLWzJPNwsL0T52WlRTTIlA0WwQ3geL2cm1N32dRXTvNCSRtvPU1BqDWzfjQnZl1uhYDMiuFi_tKoEtpyNEt8cnFLnJ7iqfwZGclYAQOTC3nNjgxtjgo1rmrbfL-_x8L1aKltLRmHeEiYRkLgdxBVAEM1dApvvXxTbKAl2AOHCALki6NQKSn5IZC310XvgM2r36hLfII58uf5Ciatg7xzkYr3SNMB6KnlZlVQxboZbHPVeusfjP6ecC5WExbI2gJ6CgORjNeEB7UddhWYUxZ707g19UYZA9sRgtghqJYrBOI4hR7J6RdTOhWNe1H-r9KLQ2v61-6eLiBxHpV0ov5p9cOY0vpT_VaHXZKfda4lCQOJjbXVUI8wvfZGmj7lM1Jc4YvHvF6Q5kf0i9HU0TkcUHb4tPm9DOZMU0ut_VOMq_A8u-wU7YnfJbZHC5FRFCebP8FmIytTMQzlL_AZFjptru1WuyQOSOSmRZGYKDqGJTuRvnB9W58cNLwtgPz_baZ3IjAsXeT-bNbpJDiI1_rps3NZNkbrs8OFEmHQfPiwzRO8Z4jOatpP98l3-Fl5kY4jueEHEdNodMTLebebhnrhUKbcvy9nkjy0B5T2Ulh5vnuCeB7INQcWF6DliDt69PZ2X60x_EpIKStcM65cVQJF8auZuL6UhP0KVbQI6pGkkVvTYcfL6qXTSaTPzJRoQkrBHc7pD3hfp7D-CbcS6BadoP0rOqjIqAhHTHEEC1WBa3FOQnp9jCR7Pgv5JdZx7mvXUyai-ny0]--></g></svg>