<?xml version="1.0" encoding="us-ascii" standalone="no"?><svg xmlns="http://www.w3.org/2000/svg" xmlns:xlink="http://www.w3.org/1999/xlink" contentStyleType="text/css" height="630px" preserveAspectRatio="none" style="width:743px;height:630px;background:#FFFFFF;" version="1.1" viewBox="0 0 743 630" width="743px" zoomAndPan="magnify"><defs/><g><text fill="#000000" font-family="sans-serif" font-size="14" font-weight="bold" lengthAdjust="spacing" textLength="275" x="230" y="29.5332">Display Result and Web Camera Source</text><line style="stroke:#181818;stroke-width:0.5;stroke-dasharray:5.0,5.0;" x1="90" x2="90" y1="76.2188" y2="593.4375"/><line style="stroke:#181818;stroke-width:0.5;stroke-dasharray:5.0,5.0;" x1="341.5" x2="341.5" y1="76.2188" y2="593.4375"/><line style="stroke:#181818;stroke-width:0.5;stroke-dasharray:5.0,5.0;" x1="527.5" x2="527.5" y1="76.2188" y2="593.4375"/><rect fill="#E2E2F0" height="31.6094" rx="2.5" ry="2.5" style="stroke:#181818;stroke-width:0.5;" width="170" x="5" y="43.6094"/><text fill="#000000" font-family="sans-serif" font-size="14" lengthAdjust="spacing" textLength="156" x="12" y="65.1426">HandLandmarkerRunner</text><rect fill="#E2E2F0" height="31.6094" rx="2.5" ry="2.5" style="stroke:#181818;stroke-width:0.5;" width="170" x="5" y="592.4375"/><text fill="#000000" font-family="sans-serif" font-size="14" lengthAdjust="spacing" textLength="156" x="12" y="613.9707">HandLandmarkerRunner</text><rect fill="#E2E2F0" height="31.6094" rx="2.5" ry="2.5" style="stroke:#181818;stroke-width:0.5;" width="293" x="195.5" y="43.6094"/><text fill="#000000" font-family="sans-serif" font-size="14" lengthAdjust="spacing" textLength="279" x="202.5" y="65.1426">HandLandmarkerResultAnnotationController</text><rect fill="#E2E2F0" height="31.6094" rx="2.5" ry="2.5" style="stroke:#181818;stroke-width:0.5;" width="293" x="195.5" y="592.4375"/><text fill="#000000" font-family="sans-serif" font-size="14" lengthAdjust="spacing" textLength="279" x="202.5" y="613.9707">HandLandmarkerResultAnnotationController</text><rect fill="#E2E2F0" height="31.6094" rx="2.5" ry="2.5" style="stroke:#181818;stroke-width:0.5;" width="59" x="498.5" y="43.6094"/><text fill="#000000" font-family="sans-serif" font-size="14" lengthAdjust="spacing" textLength="45" x="505.5" y="65.1426">Screen</text><rect fill="#E2E2F0" height="31.6094" rx="2.5" ry="2.5" style="stroke:#181818;stroke-width:0.5;" width="59" x="498.5" y="592.4375"/><text fill="#000000" font-family="sans-serif" font-size="14" lengthAdjust="spacing" textLength="45" x="505.5" y="613.9707">Screen</text><rect fill="#EEEEEE" height="3" style="stroke:#EEEEEE;stroke-width:1.0;" width="736" x="0" y="107.3945"/><line style="stroke:#000000;stroke-width:1.0;" x1="0" x2="736" y1="107.3945" y2="107.3945"/><line style="stroke:#000000;stroke-width:1.0;" x1="0" x2="736" y1="110.3945" y2="110.3945"/><rect fill="#EEEEEE" height="24.3516" style="stroke:#000000;stroke-width:2.0;" width="144" x="296" y="96.2188"/><text fill="#000000" font-family="sans-serif" font-size="13" font-weight="bold" lengthAdjust="spacing" textLength="130" x="302" y="113.7139">Get detection results</text><line style="stroke:#181818;stroke-width:1.0;" x1="90" x2="132" y1="152.9219" y2="152.9219"/><line style="stroke:#181818;stroke-width:1.0;" x1="132" x2="132" y1="152.9219" y2="165.9219"/><line style="stroke:#181818;stroke-width:1.0;" x1="91" x2="132" y1="165.9219" y2="165.9219"/><polygon fill="#181818" points="101,161.9219,91,165.9219,101,169.9219,97,165.9219" style="stroke:#181818;stroke-width:1.0;"/><text fill="#000000" font-family="sans-serif" font-size="13" lengthAdjust="spacing" textLength="238" x="97" y="148.0654">OnHandLandmarkDetectionOutput(result)</text><polygon fill="#181818" points="330,192.2734,340,196.2734,330,200.2734,334,196.2734" style="stroke:#181818;stroke-width:1.0;"/><line style="stroke:#181818;stroke-width:1.0;" x1="90" x2="336" y1="196.2734" y2="196.2734"/><text fill="#000000" font-family="sans-serif" font-size="13" lengthAdjust="spacing" textLength="98" x="97" y="191.417">DrawLater(result)</text><line style="stroke:#181818;stroke-width:1.0;" x1="342" x2="384" y1="226.625" y2="226.625"/><line style="stroke:#181818;stroke-width:1.0;" x1="384" x2="384" y1="226.625" y2="239.625"/><line style="stroke:#181818;stroke-width:1.0;" x1="343" x2="384" y1="239.625" y2="239.625"/><polygon fill="#181818" points="353,235.625,343,239.625,353,243.625,349,239.625" style="stroke:#181818;stroke-width:1.0;"/><text fill="#000000" font-family="sans-serif" font-size="13" lengthAdjust="spacing" textLength="159" x="349" y="221.7686">UpdateCurrentTarget(result)</text><line style="stroke:#181818;stroke-width:1.0;" x1="342" x2="384" y1="269.9766" y2="269.9766"/><line style="stroke:#181818;stroke-width:1.0;" x1="384" x2="384" y1="269.9766" y2="282.9766"/><line style="stroke:#181818;stroke-width:1.0;" x1="343" x2="384" y1="282.9766" y2="282.9766"/><polygon fill="#181818" points="353,278.9766,343,282.9766,353,286.9766,349,282.9766" style="stroke:#181818;stroke-width:1.0;"/><text fill="#000000" font-family="sans-serif" font-size="13" lengthAdjust="spacing" textLength="171" x="349" y="265.1201">Clone result to _currentTarget</text><path d="M40,256.125 L40,282.125 L337,282.125 L337,266.125 L327,256.125 L40,256.125 " fill="#FEFFDD" style="stroke:#181818;stroke-width:0.5;"/><path d="M327,256.125 L327,266.125 L337,266.125 L327,256.125 " fill="#FEFFDD" style="stroke:#181818;stroke-width:0.5;"/><text fill="#000000" font-family="sans-serif" font-size="13" lengthAdjust="spacing" textLength="276" x="46" y="274.6201">_currentTarget holds the latest detection results</text><rect fill="#EEEEEE" height="3" style="stroke:#EEEEEE;stroke-width:1.0;" width="736" x="0" y="312.1523"/><line style="stroke:#000000;stroke-width:1.0;" x1="0" x2="736" y1="312.1523" y2="312.1523"/><line style="stroke:#000000;stroke-width:1.0;" x1="0" x2="736" y1="315.1523" y2="315.1523"/><rect fill="#EEEEEE" height="24.3516" style="stroke:#000000;stroke-width:2.0;" width="155" x="290.5" y="300.9766"/><text fill="#000000" font-family="sans-serif" font-size="13" font-weight="bold" lengthAdjust="spacing" textLength="141" x="296.5" y="318.4717">Drow detection results</text><line style="stroke:#181818;stroke-width:1.0;" x1="342" x2="384" y1="357.6797" y2="357.6797"/><line style="stroke:#181818;stroke-width:1.0;" x1="384" x2="384" y1="357.6797" y2="370.6797"/><line style="stroke:#181818;stroke-width:1.0;" x1="343" x2="384" y1="370.6797" y2="370.6797"/><polygon fill="#181818" points="353,366.6797,343,370.6797,353,374.6797,349,370.6797" style="stroke:#181818;stroke-width:1.0;"/><text fill="#000000" font-family="sans-serif" font-size="13" lengthAdjust="spacing" textLength="74" x="349" y="352.8232">LateUpdate()</text><line style="stroke:#181818;stroke-width:1.0;" x1="342" x2="384" y1="401.0313" y2="401.0313"/><line style="stroke:#181818;stroke-width:1.0;" x1="384" x2="384" y1="401.0313" y2="414.0313"/><line style="stroke:#181818;stroke-width:1.0;" x1="343" x2="384" y1="414.0313" y2="414.0313"/><polygon fill="#181818" points="353,410.0313,343,414.0313,353,418.0313,349,414.0313" style="stroke:#181818;stroke-width:1.0;"/><text fill="#000000" font-family="sans-serif" font-size="13" lengthAdjust="spacing" textLength="63" x="349" y="396.1748">SyncNow()</text><path d="M424,387.1797 L424,413.1797 L558,413.1797 L558,397.1797 L548,387.1797 L424,387.1797 " fill="#FEFFDD" style="stroke:#181818;stroke-width:0.5;"/><path d="M548,387.1797 L548,397.1797 L558,397.1797 L548,387.1797 " fill="#FEFFDD" style="stroke:#181818;stroke-width:0.5;"/><text fill="#000000" font-family="sans-serif" font-size="13" lengthAdjust="spacing" textLength="113" x="430" y="405.6748">Details are omitted.</text><rect fill="#EEEEEE" height="3" style="stroke:#EEEEEE;stroke-width:1.0;" width="736" x="0" y="443.207"/><line style="stroke:#000000;stroke-width:1.0;" x1="0" x2="736" y1="443.207" y2="443.207"/><line style="stroke:#000000;stroke-width:1.0;" x1="0" x2="736" y1="446.207" y2="446.207"/><rect fill="#EEEEEE" height="24.3516" style="stroke:#000000;stroke-width:2.0;" width="196" x="270" y="432.0313"/><text fill="#000000" font-family="sans-serif" font-size="13" font-weight="bold" lengthAdjust="spacing" textLength="182" x="276" y="449.5264">Display Web Camera Source</text><line style="stroke:#181818;stroke-width:1.0;" x1="90" x2="132" y1="488.7344" y2="488.7344"/><line style="stroke:#181818;stroke-width:1.0;" x1="132" x2="132" y1="488.7344" y2="501.7344"/><line style="stroke:#181818;stroke-width:1.0;" x1="91" x2="132" y1="501.7344" y2="501.7344"/><polygon fill="#181818" points="101,497.7344,91,501.7344,101,505.7344,97,501.7344" style="stroke:#181818;stroke-width:1.0;"/><text fill="#000000" font-family="sans-serif" font-size="13" lengthAdjust="spacing" textLength="122" x="97" y="483.8779">StartCoroutine(Run())</text><path d="M231,474.8828 L231,500.8828 L500,500.8828 L500,484.8828 L490,474.8828 L231,474.8828 " fill="#FEFFDD" style="stroke:#181818;stroke-width:0.5;"/><path d="M490,474.8828 L490,484.8828 L500,484.8828 L490,474.8828 " fill="#FEFFDD" style="stroke:#181818;stroke-width:0.5;"/><text fill="#000000" font-family="sans-serif" font-size="13" lengthAdjust="spacing" textLength="248" x="237" y="493.3779">See "Sequence_HandLandmarker_Source"</text><polygon fill="#181818" points="516,528.0859,526,532.0859,516,536.0859,520,532.0859" style="stroke:#181818;stroke-width:1.0;"/><line style="stroke:#181818;stroke-width:1.0;" x1="90" x2="522" y1="532.0859" y2="532.0859"/><text fill="#000000" font-family="sans-serif" font-size="13" lengthAdjust="spacing" textLength="131" x="97" y="527.2295">Initialize(imageSource)</text><line style="stroke:#181818;stroke-width:1.0;" x1="528" x2="570" y1="562.4375" y2="562.4375"/><line style="stroke:#181818;stroke-width:1.0;" x1="570" x2="570" y1="562.4375" y2="575.4375"/><line style="stroke:#181818;stroke-width:1.0;" x1="529" x2="570" y1="575.4375" y2="575.4375"/><polygon fill="#181818" points="539,571.4375,529,575.4375,539,579.4375,535,575.4375" style="stroke:#181818;stroke-width:1.0;"/><text fill="#000000" font-family="sans-serif" font-size="13" lengthAdjust="spacing" textLength="194" x="535" y="557.5811">imageSource.GetCurrentTexture()</text><path d="M356,548.5859 L356,574.5859 L523,574.5859 L523,558.5859 L513,548.5859 L356,548.5859 " fill="#FEFFDD" style="stroke:#181818;stroke-width:0.5;"/><path d="M513,548.5859 L513,558.5859 L523,558.5859 L513,548.5859 " fill="#FEFFDD" style="stroke:#181818;stroke-width:0.5;"/><text fill="#000000" font-family="sans-serif" font-size="13" lengthAdjust="spacing" textLength="146" x="362" y="567.0811">Set Texture to RawImage</text><!--SRC=[jLDDIyD04BtdLmmzfGVz0K84IK4BnKAZU2nZChQBczawcINMN-_cev9g2rNiOIyxRzxRVVD6ZLg2YQas5hUmeCfR1UG2dkWPKYn943Bd9QSeIXAu9OM2b78rZa5QU9KaKNGNUcRXb2Yl90lFJ08Nrt3m_WhcF2nCTenphnklSSSxFfcrXTymEyM69NMiugnjbIQ2zGoLv2ZhyUxVAJrkYg2JUX5YVK1PaPvTCxMEgPy3g8DbFfIFej14OEb50tQ_1cjdYmfq7UhXsTM1kROJduYhJnhvVtsf6LPdPNm-tx8jv_UkRXHQYyIirer78ObeR0Ke1AuqgbHSTZRq6_9ZBVuG_anHD7NYl1gcEDp7u-yFoOXWbD6R9yvfkK-qx9H7nuMpN8Wuq4pPg45hFYWs9QwewmnYFMA87G0kmvxlWaplweM-dEh3b8K4zQKcTmkifqrxz0a0]--></g></svg>