<?xml version="1.0" encoding="us-ascii" standalone="no"?><svg xmlns="http://www.w3.org/2000/svg" xmlns:xlink="http://www.w3.org/1999/xlink" contentStyleType="text/css" height="1046px" preserveAspectRatio="none" style="width:932px;height:1046px;background:#FFFFFF;" version="1.1" viewBox="0 0 932 1046" width="932px" zoomAndPan="magnify"><defs/><g><text fill="#000000" font-family="sans-serif" font-size="14" font-weight="bold" lengthAdjust="spacing" textLength="179" x="372.5" y="29.5332">Establish WebCamSource</text><rect fill="none" height="48.7031" style="stroke:#000000;stroke-width:1.5;" width="365.5" x="324.5" y="453.7344"/><line style="stroke:#181818;stroke-width:0.5;stroke-dasharray:5.0,5.0;" x1="236" x2="236" y1="76.2188" y2="1009.7109"/><line style="stroke:#181818;stroke-width:0.5;stroke-dasharray:5.0,5.0;" x1="371.5" x2="371.5" y1="76.2188" y2="1009.7109"/><line style="stroke:#181818;stroke-width:0.5;stroke-dasharray:5.0,5.0;" x1="528" x2="528" y1="76.2188" y2="1009.7109"/><line style="stroke:#181818;stroke-width:0.5;stroke-dasharray:5.0,5.0;" x1="631" x2="631" y1="76.2188" y2="1009.7109"/><line style="stroke:#181818;stroke-width:0.5;stroke-dasharray:5.0,5.0;" x1="765" x2="765" y1="76.2188" y2="1009.7109"/><rect fill="#E2E2F0" height="31.6094" rx="2.5" ry="2.5" style="stroke:#181818;stroke-width:0.5;" width="170" x="151" y="43.6094"/><text fill="#000000" font-family="sans-serif" font-size="14" lengthAdjust="spacing" textLength="156" x="158" y="65.1426">HandLandmarkerRunner</text><rect fill="#E2E2F0" height="31.6094" rx="2.5" ry="2.5" style="stroke:#181818;stroke-width:0.5;" width="170" x="151" y="1008.7109"/><text fill="#000000" font-family="sans-serif" font-size="14" lengthAdjust="spacing" textLength="156" x="158" y="1030.2441">HandLandmarkerRunner</text><rect fill="#E2E2F0" height="31.6094" rx="2.5" ry="2.5" style="stroke:#181818;stroke-width:0.5;" width="75" x="334.5" y="43.6094"/><text fill="#000000" font-family="sans-serif" font-size="14" lengthAdjust="spacing" textLength="61" x="341.5" y="65.1426">Bootstrap</text><rect fill="#E2E2F0" height="31.6094" rx="2.5" ry="2.5" style="stroke:#181818;stroke-width:0.5;" width="75" x="334.5" y="1008.7109"/><text fill="#000000" font-family="sans-serif" font-size="14" lengthAdjust="spacing" textLength="61" x="341.5" y="1030.2441">Bootstrap</text><rect fill="#E2E2F0" height="31.6094" rx="2.5" ry="2.5" style="stroke:#181818;stroke-width:0.5;" width="90" x="483" y="43.6094"/><text fill="#000000" font-family="sans-serif" font-size="14" lengthAdjust="spacing" textLength="76" x="490" y="65.1426">AppSettings</text><rect fill="#E2E2F0" height="31.6094" rx="2.5" ry="2.5" style="stroke:#181818;stroke-width:0.5;" width="90" x="483" y="1008.7109"/><text fill="#000000" font-family="sans-serif" font-size="14" lengthAdjust="spacing" textLength="76" x="490" y="1030.2441">AppSettings</text><rect fill="#E2E2F0" height="31.6094" rx="2.5" ry="2.5" style="stroke:#181818;stroke-width:0.5;" width="97" x="583" y="43.6094"/><text fill="#000000" font-family="sans-serif" font-size="14" lengthAdjust="spacing" textLength="83" x="590" y="65.1426">GpuManager</text><rect fill="#E2E2F0" height="31.6094" rx="2.5" ry="2.5" style="stroke:#181818;stroke-width:0.5;" width="97" x="583" y="1008.7109"/><text fill="#000000" font-family="sans-serif" font-size="14" lengthAdjust="spacing" textLength="83" x="590" y="1030.2441">GpuManager</text><rect fill="#E2E2F0" height="31.6094" rx="2.5" ry="2.5" style="stroke:#181818;stroke-width:0.5;" width="150" x="690" y="43.6094"/><text fill="#000000" font-family="sans-serif" font-size="14" lengthAdjust="spacing" textLength="136" x="697" y="65.1426">ImageSourceProvider</text><rect fill="#E2E2F0" height="31.6094" rx="2.5" ry="2.5" style="stroke:#181818;stroke-width:0.5;" width="150" x="690" y="1008.7109"/><text fill="#000000" font-family="sans-serif" font-size="14" lengthAdjust="spacing" textLength="136" x="697" y="1030.2441">ImageSourceProvider</text><rect fill="#EEEEEE" height="3" style="stroke:#EEEEEE;stroke-width:1.0;" width="925" x="0" y="107.3945"/><line style="stroke:#000000;stroke-width:1.0;" x1="0" x2="925" y1="107.3945" y2="107.3945"/><line style="stroke:#000000;stroke-width:1.0;" x1="0" x2="925" y1="110.3945" y2="110.3945"/><rect fill="#EEEEEE" height="24.3516" style="stroke:#000000;stroke-width:2.0;" width="188" x="368.5" y="96.2188"/><text fill="#000000" font-family="sans-serif" font-size="13" font-weight="bold" lengthAdjust="spacing" textLength="174" x="374.5" y="113.7139">Find Or Generate Bootstrap</text><line style="stroke:#181818;stroke-width:1.0;" x1="236" x2="278" y1="152.9219" y2="152.9219"/><line style="stroke:#181818;stroke-width:1.0;" x1="278" x2="278" y1="152.9219" y2="165.9219"/><line style="stroke:#181818;stroke-width:1.0;" x1="237" x2="278" y1="165.9219" y2="165.9219"/><polygon fill="#181818" points="247,161.9219,237,165.9219,247,169.9219,243,165.9219" style="stroke:#181818;stroke-width:1.0;"/><text fill="#000000" font-family="sans-serif" font-size="13" lengthAdjust="spacing" textLength="36" x="243" y="148.0654">Start()</text><line style="stroke:#181818;stroke-width:1.0;" x1="236" x2="278" y1="200.9492" y2="200.9492"/><line style="stroke:#181818;stroke-width:1.0;" x1="278" x2="278" y1="200.9492" y2="213.9492"/><line style="stroke:#181818;stroke-width:1.0;" x1="237" x2="278" y1="213.9492" y2="213.9492"/><polygon fill="#181818" points="247,209.9492,237,213.9492,247,217.9492,243,213.9492" style="stroke:#181818;stroke-width:1.0;"/><text fill="#000000" font-family="sans-serif" font-size="13" lengthAdjust="spacing" textLength="89" x="243" y="196.0928">FindBootstrap()</text><path d="M32,178.9219 L32,220.9219 L231,220.9219 L231,188.9219 L221,178.9219 L32,178.9219 " fill="#FEFFDD" style="stroke:#181818;stroke-width:0.5;"/><path d="M221,178.9219 L221,188.9219 L231,188.9219 L221,178.9219 " fill="#FEFFDD" style="stroke:#181818;stroke-width:0.5;"/><text fill="#000000" font-family="sans-serif" font-size="13" lengthAdjust="spacing" textLength="174" x="38" y="197.417">Generate the Bootstrap object</text><text fill="#000000" font-family="sans-serif" font-size="13" lengthAdjust="spacing" textLength="107" x="38" y="213.7686">if it does not exist.</text><rect fill="#EEEEEE" height="3" style="stroke:#EEEEEE;stroke-width:1.0;" width="925" x="0" y="247.8008"/><line style="stroke:#000000;stroke-width:1.0;" x1="0" x2="925" y1="247.8008" y2="247.8008"/><line style="stroke:#000000;stroke-width:1.0;" x1="0" x2="925" y1="250.8008" y2="250.8008"/><rect fill="#EEEEEE" height="24.3516" style="stroke:#000000;stroke-width:2.0;" width="74" x="425.5" y="236.625"/><text fill="#000000" font-family="sans-serif" font-size="13" font-weight="bold" lengthAdjust="spacing" textLength="60" x="431.5" y="254.1201">Bootstrap</text><line style="stroke:#181818;stroke-width:1.0;" x1="372" x2="414" y1="293.3281" y2="293.3281"/><line style="stroke:#181818;stroke-width:1.0;" x1="414" x2="414" y1="293.3281" y2="306.3281"/><line style="stroke:#181818;stroke-width:1.0;" x1="373" x2="414" y1="306.3281" y2="306.3281"/><polygon fill="#181818" points="383,302.3281,373,306.3281,383,310.3281,379,306.3281" style="stroke:#181818;stroke-width:1.0;"/><text fill="#000000" font-family="sans-serif" font-size="13" lengthAdjust="spacing" textLength="65" x="379" y="288.4717">OnEnable()</text><line style="stroke:#181818;stroke-width:1.0;" x1="372" x2="414" y1="336.6797" y2="336.6797"/><line style="stroke:#181818;stroke-width:1.0;" x1="414" x2="414" y1="336.6797" y2="349.6797"/><line style="stroke:#181818;stroke-width:1.0;" x1="373" x2="414" y1="349.6797" y2="349.6797"/><polygon fill="#181818" points="383,345.6797,373,349.6797,383,353.6797,379,349.6797" style="stroke:#181818;stroke-width:1.0;"/><text fill="#000000" font-family="sans-serif" font-size="13" lengthAdjust="spacing" textLength="116" x="379" y="331.8232">StartCoroutine(Init())</text><polygon fill="#181818" points="516,379.0313,526,383.0313,516,387.0313,520,383.0313" style="stroke:#181818;stroke-width:1.0;"/><line style="stroke:#181818;stroke-width:1.0;" x1="372" x2="522" y1="383.0313" y2="383.0313"/><text fill="#000000" font-family="sans-serif" font-size="13" lengthAdjust="spacing" textLength="101" x="379" y="378.1748">ResetGlogFlags()</text><path d="M241,362.6797 L241,388.6797 L367,388.6797 L367,372.6797 L357,362.6797 L241,362.6797 " fill="#FEFFDD" style="stroke:#181818;stroke-width:0.5;"/><path d="M357,362.6797 L357,372.6797 L367,372.6797 L357,362.6797 " fill="#FEFFDD" style="stroke:#181818;stroke-width:0.5;"/><text fill="#000000" font-family="sans-serif" font-size="13" lengthAdjust="spacing" textLength="105" x="247" y="381.1748">Glog = Google log</text><line style="stroke:#181818;stroke-width:1.0;" x1="372" x2="414" y1="421.0586" y2="421.0586"/><line style="stroke:#181818;stroke-width:1.0;" x1="414" x2="414" y1="421.0586" y2="434.0586"/><line style="stroke:#181818;stroke-width:1.0;" x1="373" x2="414" y1="434.0586" y2="434.0586"/><polygon fill="#181818" points="383,430.0586,373,434.0586,383,438.0586,379,434.0586" style="stroke:#181818;stroke-width:1.0;"/><text fill="#000000" font-family="sans-serif" font-size="13" lengthAdjust="spacing" textLength="132" x="379" y="416.2021">DecideInferenceMode()</text><path d="M202,399.0313 L202,441.0313 L367,441.0313 L367,409.0313 L357,399.0313 L202,399.0313 " fill="#FEFFDD" style="stroke:#181818;stroke-width:0.5;"/><path d="M357,399.0313 L357,409.0313 L367,409.0313 L357,399.0313 " fill="#FEFFDD" style="stroke:#181818;stroke-width:0.5;"/><text fill="#000000" font-family="sans-serif" font-size="13" lengthAdjust="spacing" textLength="140" x="208" y="417.5264">CPU is always specified</text><text fill="#000000" font-family="sans-serif" font-size="13" lengthAdjust="spacing" textLength="134" x="208" y="433.8779">for macOS or Windows</text><path d="M324.5,453.7344 L385.5,453.7344 L385.5,462.0859 L375.5,472.0859 L324.5,472.0859 L324.5,453.7344 " fill="#EEEEEE" style="stroke:#000000;stroke-width:1.5;"/><rect fill="none" height="48.7031" style="stroke:#000000;stroke-width:1.5;" width="365.5" x="324.5" y="453.7344"/><text fill="#000000" font-family="sans-serif" font-size="13" font-weight="bold" lengthAdjust="spacing" textLength="16" x="339.5" y="468.2295">alt</text><text fill="#000000" font-family="sans-serif" font-size="11" font-weight="bold" lengthAdjust="spacing" textLength="132" x="400.5" y="467.1533">[inferenceMode == GPU]</text><polygon fill="#181818" points="619.5,490.4375,629.5,494.4375,619.5,498.4375,623.5,494.4375" style="stroke:#181818;stroke-width:1.0;"/><line style="stroke:#181818;stroke-width:1.0;" x1="372" x2="625.5" y1="494.4375" y2="494.4375"/><text fill="#000000" font-family="sans-serif" font-size="13" lengthAdjust="spacing" textLength="55" x="379" y="489.5811">Initialize()</text><polygon fill="#181818" points="516,530.7891,526,534.7891,516,538.7891,520,534.7891" style="stroke:#181818;stroke-width:1.0;"/><line style="stroke:#181818;stroke-width:1.0;" x1="372" x2="522" y1="534.7891" y2="534.7891"/><text fill="#000000" font-family="sans-serif" font-size="13" lengthAdjust="spacing" textLength="132" x="379" y="529.9326">BuildWebCamSource()</text><path d="M187,514.4375 L187,540.4375 L367,540.4375 L367,524.4375 L357,514.4375 L187,514.4375 " fill="#FEFFDD" style="stroke:#181818;stroke-width:0.5;"/><path d="M357,514.4375 L357,524.4375 L367,524.4375 L357,514.4375 " fill="#FEFFDD" style="stroke:#181818;stroke-width:0.5;"/><text fill="#000000" font-family="sans-serif" font-size="13" lengthAdjust="spacing" textLength="159" x="193" y="532.9326">Instantiate WebCamSource</text><polygon fill="#181818" points="383,575.3164,373,579.3164,383,583.3164,379,579.3164" style="stroke:#181818;stroke-width:1.0;"/><line style="stroke:#181818;stroke-width:1.0;stroke-dasharray:2.0,2.0;" x1="377" x2="527" y1="579.3164" y2="579.3164"/><text fill="#000000" font-family="sans-serif" font-size="13" lengthAdjust="spacing" textLength="95" x="389" y="574.46">WebCamSource</text><path d="M155,550.7891 L155,592.7891 L367,592.7891 L367,560.7891 L357,550.7891 L155,550.7891 " fill="#FEFFDD" style="stroke:#181818;stroke-width:0.5;"/><path d="M357,550.7891 L357,560.7891 L367,560.7891 L357,550.7891 " fill="#FEFFDD" style="stroke:#181818;stroke-width:0.5;"/><text fill="#000000" font-family="sans-serif" font-size="13" lengthAdjust="spacing" textLength="187" x="161" y="569.2842">Similarly, the Bootstrap receives</text><text fill="#000000" font-family="sans-serif" font-size="13" lengthAdjust="spacing" textLength="151" x="161" y="585.6357">a static image and a video</text><polygon fill="#181818" points="753,616.8438,763,620.8438,753,624.8438,757,620.8438" style="stroke:#181818;stroke-width:1.0;"/><line style="stroke:#181818;stroke-width:1.0;" x1="372" x2="759" y1="620.8438" y2="620.8438"/><text fill="#000000" font-family="sans-serif" font-size="13" lengthAdjust="spacing" textLength="350" x="379" y="615.9873">Initialize(WebCamSource, StaticImageSource, VideoSource)</text><polygon fill="#181818" points="516,647.1953,526,651.1953,516,655.1953,520,651.1953" style="stroke:#181818;stroke-width:1.0;"/><line style="stroke:#181818;stroke-width:1.0;" x1="372" x2="522" y1="651.1953" y2="651.1953"/><text fill="#000000" font-family="sans-serif" font-size="13" lengthAdjust="spacing" textLength="122" x="379" y="646.3389">defaultImageSource()</text><polygon fill="#181818" points="383,680.5469,373,684.5469,383,688.5469,379,684.5469" style="stroke:#181818;stroke-width:1.0;"/><line style="stroke:#181818;stroke-width:1.0;stroke-dasharray:2.0,2.0;" x1="377" x2="527" y1="684.5469" y2="684.5469"/><text fill="#000000" font-family="sans-serif" font-size="13" lengthAdjust="spacing" textLength="114" x="389" y="679.6904">defaultImageSource</text><path d="M203,664.1953 L203,690.1953 L367,690.1953 L367,674.1953 L357,664.1953 L203,664.1953 " fill="#FEFFDD" style="stroke:#181818;stroke-width:0.5;"/><path d="M357,664.1953 L357,674.1953 L367,674.1953 L357,664.1953 " fill="#FEFFDD" style="stroke:#181818;stroke-width:0.5;"/><text fill="#000000" font-family="sans-serif" font-size="13" lengthAdjust="spacing" textLength="143" x="209" y="682.6904">This is 0 for WebCamera</text><polygon fill="#181818" points="753,713.8984,763,717.8984,753,721.8984,757,717.8984" style="stroke:#181818;stroke-width:1.0;"/><line style="stroke:#181818;stroke-width:1.0;" x1="372" x2="759" y1="717.8984" y2="717.8984"/><text fill="#000000" font-family="sans-serif" font-size="13" lengthAdjust="spacing" textLength="161" x="379" y="713.042">Switch(defaultImageSource)</text><line style="stroke:#181818;stroke-width:1.0;" x1="765" x2="807" y1="764.6016" y2="764.6016"/><line style="stroke:#181818;stroke-width:1.0;" x1="807" x2="807" y1="764.6016" y2="777.6016"/><line style="stroke:#181818;stroke-width:1.0;" x1="766" x2="807" y1="777.6016" y2="777.6016"/><polygon fill="#181818" points="776,773.6016,766,777.6016,776,781.6016,772,777.6016" style="stroke:#181818;stroke-width:1.0;"/><text fill="#000000" font-family="sans-serif" font-size="13" lengthAdjust="spacing" textLength="142" x="772" y="743.3936">Specify WebCamSource</text><text fill="#000000" font-family="sans-serif" font-size="13" lengthAdjust="spacing" textLength="94" x="772" y="759.7451">as ImageSource</text><rect fill="#EEEEEE" height="3" style="stroke:#EEEEEE;stroke-width:1.0;" width="925" x="0" y="806.7773"/><line style="stroke:#000000;stroke-width:1.0;" x1="0" x2="925" y1="806.7773" y2="806.7773"/><line style="stroke:#000000;stroke-width:1.0;" x1="0" x2="925" y1="809.7773" y2="809.7773"/><rect fill="#EEEEEE" height="24.3516" style="stroke:#000000;stroke-width:2.0;" width="154" x="385.5" y="795.6016"/><text fill="#000000" font-family="sans-serif" font-size="13" font-weight="bold" lengthAdjust="spacing" textLength="140" x="391.5" y="813.0967">Recieve ImageSource</text><line style="stroke:#181818;stroke-width:1.0;" x1="236" x2="278" y1="852.3047" y2="852.3047"/><line style="stroke:#181818;stroke-width:1.0;" x1="278" x2="278" y1="852.3047" y2="865.3047"/><line style="stroke:#181818;stroke-width:1.0;" x1="237" x2="278" y1="865.3047" y2="865.3047"/><polygon fill="#181818" points="247,861.3047,237,865.3047,247,869.3047,243,865.3047" style="stroke:#181818;stroke-width:1.0;"/><text fill="#000000" font-family="sans-serif" font-size="13" lengthAdjust="spacing" textLength="34" x="243" y="847.4482">Play()</text><line style="stroke:#181818;stroke-width:1.0;" x1="236" x2="278" y1="895.6563" y2="895.6563"/><line style="stroke:#181818;stroke-width:1.0;" x1="278" x2="278" y1="895.6563" y2="908.6563"/><line style="stroke:#181818;stroke-width:1.0;" x1="237" x2="278" y1="908.6563" y2="908.6563"/><polygon fill="#181818" points="247,904.6563,237,908.6563,247,912.6563,243,908.6563" style="stroke:#181818;stroke-width:1.0;"/><text fill="#000000" font-family="sans-serif" font-size="13" lengthAdjust="spacing" textLength="122" x="243" y="890.7998">StartCoroutine(Run())</text><polygon fill="#181818" points="753,935.0078,763,939.0078,753,943.0078,757,939.0078" style="stroke:#181818;stroke-width:1.0;"/><line style="stroke:#181818;stroke-width:1.0;" x1="236" x2="759" y1="939.0078" y2="939.0078"/><text fill="#000000" font-family="sans-serif" font-size="13" lengthAdjust="spacing" textLength="139" x="243" y="934.1514">Access to ImageSource</text><polygon fill="#181818" points="247,976.5352,237,980.5352,247,984.5352,243,980.5352" style="stroke:#181818;stroke-width:1.0;"/><line style="stroke:#181818;stroke-width:1.0;stroke-dasharray:2.0,2.0;" x1="241" x2="764" y1="980.5352" y2="980.5352"/><text fill="#000000" font-family="sans-serif" font-size="13" lengthAdjust="spacing" textLength="76" x="253" y="975.6787">ImageSource</text><path d="M5,952.0078 L5,994.0078 L231,994.0078 L231,962.0078 L221,952.0078 L5,952.0078 " fill="#FEFFDD" style="stroke:#181818;stroke-width:0.5;"/><path d="M221,952.0078 L221,962.0078 L231,962.0078 L221,952.0078 " fill="#FEFFDD" style="stroke:#181818;stroke-width:0.5;"/><text fill="#000000" font-family="sans-serif" font-size="13" lengthAdjust="spacing" textLength="201" x="11" y="970.5029">Actually receives WebCamSource,</text><text fill="#000000" font-family="sans-serif" font-size="13" lengthAdjust="spacing" textLength="192" x="11" y="986.8545">which inherits from ImageSource.</text><!--SRC=[dLHDRzim3BtxL_2O04cnSp4FIDFM2x0YGRokbrmKcOwvoL8WqScoNp_Q0HhR-S1Mm0OiYNnyZtmo4nk4fy1gRIWKy8RhgIfJLtcDKHJ7y4msWxc712rwnGWFpd5WhxPn74LVbSs-oLig_mlzih8I1EClS77_7b9MdWV3_qshERoNbVJ8EY5YC6SvV2V6HOiSkFLFr0mhIpaGG-OmWAG1_gR0TusqZf9Jfl0uBUvXRf-iD0UbxjMOHjVKULSnMHpCB8dAOGzqijsco1Am2PAon82S6BTvDceJpaJ90SIGEBUHySZY1i57r9JXpEReqMfySHdsuQQBLw00okpL8K3OIaPEc4btSkUXL7gUWdoyIP_TFaIHCWpK1WHfLx9uxR58jjMBichJ3AaMJShGdwOwskoc_8UAJDOsMv_op8edhI3ALjUK9zJFut4FjXlPnakf9AEyEOnwHl6eaNRYZfLL83MPD50fea2C20fsqbpNqpAhpuzL5jxL4RqEj7cCQdi8QYjf13zgrEFYjayop5Lbk9Ky6DxkmNb6jnFV2x62F9-W7lwHgToWVvAOxebrCJWl8PmkPGZG5IH86nSUEYEhPn2WmroCjvH0t65x_mF_deLHXxfr7_bbdQwsx3St-nhAPR4JhJ44ODVLTX6a7kWLVrsRw4HpfOmvdBpSzT_AxWlIXLpf0ZrnWDoxiWrt5_q5]--></g></svg>