<?xml version="1.0" encoding="us-ascii" standalone="no"?><svg xmlns="http://www.w3.org/2000/svg" xmlns:xlink="http://www.w3.org/1999/xlink" contentStyleType="text/css" height="1611px" preserveAspectRatio="none" style="width:1625px;height:1611px;background:#FFFFFF;" version="1.1" viewBox="0 0 1625 1611" width="1625px" zoomAndPan="magnify"><defs/><g><text fill="#000000" font-family="sans-serif" font-size="14" font-weight="bold" lengthAdjust="spacing" textLength="230" x="719" y="29.5332">Run() at HandLandmarkerRunner</text><rect fill="none" height="971.5156" style="stroke:#000000;stroke-width:1.5;" width="1569" x="50" y="586.4922"/><rect fill="none" height="61.7031" style="stroke:#000000;stroke-width:1.5;" width="277" x="70" y="611.8438"/><rect fill="none" height="169.7578" style="stroke:#000000;stroke-width:1.5;" width="1149.5" x="60" y="717.8984"/><rect fill="none" height="61.7031" style="stroke:#000000;stroke-width:1.5;" width="190" x="70" y="818.9531"/><rect fill="none" height="259.6484" style="stroke:#000000;stroke-width:1.5;" width="1139.5" x="70" y="901.6563"/><rect fill="none" height="375.7031" style="stroke:#000000;stroke-width:1.5;" width="1539" x="70" y="1175.3047"/><line style="stroke:#181818;stroke-width:0.5;stroke-dasharray:5.0,5.0;" x1="165" x2="165" y1="76.2188" y2="1575.0078"/><line style="stroke:#181818;stroke-width:0.5;stroke-dasharray:5.0,5.0;" x1="401" x2="401" y1="76.2188" y2="1575.0078"/><line style="stroke:#181818;stroke-width:0.5;stroke-dasharray:5.0,5.0;" x1="563" x2="563" y1="76.2188" y2="1575.0078"/><line style="stroke:#181818;stroke-width:0.5;stroke-dasharray:5.0,5.0;" x1="740" x2="740" y1="76.2188" y2="1575.0078"/><line style="stroke:#181818;stroke-width:0.5;stroke-dasharray:5.0,5.0;" x1="949.5" x2="949.5" y1="76.2188" y2="1575.0078"/><line style="stroke:#181818;stroke-width:0.5;stroke-dasharray:5.0,5.0;" x1="1062.5" x2="1062.5" y1="76.2188" y2="1575.0078"/><line style="stroke:#181818;stroke-width:0.5;stroke-dasharray:5.0,5.0;" x1="1150.5" x2="1150.5" y1="76.2188" y2="1575.0078"/><line style="stroke:#181818;stroke-width:0.5;stroke-dasharray:5.0,5.0;" x1="1255.5" x2="1255.5" y1="76.2188" y2="1575.0078"/><line style="stroke:#181818;stroke-width:0.5;stroke-dasharray:5.0,5.0;" x1="1523" x2="1523" y1="76.2188" y2="1575.0078"/><rect fill="#E2E2F0" height="31.6094" rx="2.5" ry="2.5" style="stroke:#181818;stroke-width:0.5;" width="170" x="80" y="43.6094"/><text fill="#000000" font-family="sans-serif" font-size="14" lengthAdjust="spacing" textLength="156" x="87" y="65.1426">HandLandmarkerRunner</text><rect fill="#E2E2F0" height="31.6094" rx="2.5" ry="2.5" style="stroke:#181818;stroke-width:0.5;" width="170" x="80" y="1574.0078"/><text fill="#000000" font-family="sans-serif" font-size="14" lengthAdjust="spacing" textLength="156" x="87" y="1595.541">HandLandmarkerRunner</text><rect fill="#E2E2F0" height="31.6094" rx="2.5" ry="2.5" style="stroke:#181818;stroke-width:0.5;" width="94" x="354" y="43.6094"/><text fill="#000000" font-family="sans-serif" font-size="14" lengthAdjust="spacing" textLength="80" x="361" y="65.1426">AssetLoader</text><rect fill="#E2E2F0" height="31.6094" rx="2.5" ry="2.5" style="stroke:#181818;stroke-width:0.5;" width="94" x="354" y="1574.0078"/><text fill="#000000" font-family="sans-serif" font-size="14" lengthAdjust="spacing" textLength="80" x="361" y="1595.541">AssetLoader</text><rect fill="#E2E2F0" height="31.6094" rx="2.5" ry="2.5" style="stroke:#181818;stroke-width:0.5;" width="211" x="458" y="43.6094"/><text fill="#000000" font-family="sans-serif" font-size="14" lengthAdjust="spacing" textLength="197" x="465" y="65.1426">HandLandmarkDetectionConfig</text><rect fill="#E2E2F0" height="31.6094" rx="2.5" ry="2.5" style="stroke:#181818;stroke-width:0.5;" width="211" x="458" y="1574.0078"/><text fill="#000000" font-family="sans-serif" font-size="14" lengthAdjust="spacing" textLength="197" x="465" y="1595.541">HandLandmarkDetectionConfig</text><rect fill="#E2E2F0" height="31.6094" rx="2.5" ry="2.5" style="stroke:#181818;stroke-width:0.5;" width="123" x="679" y="43.6094"/><text fill="#000000" font-family="sans-serif" font-size="14" lengthAdjust="spacing" textLength="109" x="686" y="65.1426">HandLandmarker</text><rect fill="#E2E2F0" height="31.6094" rx="2.5" ry="2.5" style="stroke:#181818;stroke-width:0.5;" width="123" x="679" y="1574.0078"/><text fill="#000000" font-family="sans-serif" font-size="14" lengthAdjust="spacing" textLength="109" x="686" y="1595.541">HandLandmarker</text><rect fill="#E2E2F0" height="31.6094" rx="2.5" ry="2.5" style="stroke:#181818;stroke-width:0.5;" width="150" x="874.5" y="43.6094"/><text fill="#000000" font-family="sans-serif" font-size="14" lengthAdjust="spacing" textLength="136" x="881.5" y="65.1426">ImageSourceProvider</text><rect fill="#E2E2F0" height="31.6094" rx="2.5" ry="2.5" style="stroke:#181818;stroke-width:0.5;" width="150" x="874.5" y="1574.0078"/><text fill="#000000" font-family="sans-serif" font-size="14" lengthAdjust="spacing" textLength="136" x="881.5" y="1595.541">ImageSourceProvider</text><rect fill="#E2E2F0" height="31.6094" rx="2.5" ry="2.5" style="stroke:#181818;stroke-width:0.5;" width="57" x="1034.5" y="43.6094"/><text fill="#000000" font-family="sans-serif" font-size="14" lengthAdjust="spacing" textLength="43" x="1041.5" y="65.1426">screen</text><rect fill="#E2E2F0" height="31.6094" rx="2.5" ry="2.5" style="stroke:#181818;stroke-width:0.5;" width="57" x="1034.5" y="1574.0078"/><text fill="#000000" font-family="sans-serif" font-size="14" lengthAdjust="spacing" textLength="43" x="1041.5" y="1595.541">screen</text><rect fill="#E2E2F0" height="31.6094" rx="2.5" ry="2.5" style="stroke:#181818;stroke-width:0.5;" width="98" x="1101.5" y="43.6094"/><text fill="#000000" font-family="sans-serif" font-size="14" lengthAdjust="spacing" textLength="84" x="1108.5" y="65.1426">textureFrame</text><rect fill="#E2E2F0" height="31.6094" rx="2.5" ry="2.5" style="stroke:#181818;stroke-width:0.5;" width="98" x="1101.5" y="1574.0078"/><text fill="#000000" font-family="sans-serif" font-size="14" lengthAdjust="spacing" textLength="84" x="1108.5" y="1595.541">textureFrame</text><rect fill="#E2E2F0" height="31.6094" rx="2.5" ry="2.5" style="stroke:#181818;stroke-width:0.5;" width="92" x="1209.5" y="43.6094"/><text fill="#000000" font-family="sans-serif" font-size="14" lengthAdjust="spacing" textLength="78" x="1216.5" y="65.1426">TaskRunner</text><rect fill="#E2E2F0" height="31.6094" rx="2.5" ry="2.5" style="stroke:#181818;stroke-width:0.5;" width="92" x="1209.5" y="1574.0078"/><text fill="#000000" font-family="sans-serif" font-size="14" lengthAdjust="spacing" textLength="78" x="1216.5" y="1595.541">TaskRunner</text><rect fill="#E2E2F0" height="31.6094" rx="2.5" ry="2.5" style="stroke:#181818;stroke-width:0.5;" width="151" x="1448" y="43.6094"/><text fill="#000000" font-family="sans-serif" font-size="14" lengthAdjust="spacing" textLength="137" x="1455" y="65.1426">UnsafeNativeMethods</text><rect fill="#E2E2F0" height="31.6094" rx="2.5" ry="2.5" style="stroke:#181818;stroke-width:0.5;" width="151" x="1448" y="1574.0078"/><text fill="#000000" font-family="sans-serif" font-size="14" lengthAdjust="spacing" textLength="137" x="1455" y="1595.541">UnsafeNativeMethods</text><line style="stroke:#181818;stroke-width:1.0;" x1="165" x2="207" y1="108.5703" y2="108.5703"/><line style="stroke:#181818;stroke-width:1.0;" x1="207" x2="207" y1="108.5703" y2="121.5703"/><line style="stroke:#181818;stroke-width:1.0;" x1="166" x2="207" y1="121.5703" y2="121.5703"/><polygon fill="#181818" points="176,117.5703,166,121.5703,176,125.5703,172,121.5703" style="stroke:#181818;stroke-width:1.0;"/><text fill="#000000" font-family="sans-serif" font-size="13" lengthAdjust="spacing" textLength="36" x="172" y="103.7139">Start()</text><line style="stroke:#181818;stroke-width:1.0;" x1="165" x2="207" y1="151.9219" y2="151.9219"/><line style="stroke:#181818;stroke-width:1.0;" x1="207" x2="207" y1="151.9219" y2="164.9219"/><line style="stroke:#181818;stroke-width:1.0;" x1="166" x2="207" y1="164.9219" y2="164.9219"/><polygon fill="#181818" points="176,160.9219,166,164.9219,176,168.9219,172,164.9219" style="stroke:#181818;stroke-width:1.0;"/><text fill="#000000" font-family="sans-serif" font-size="13" lengthAdjust="spacing" textLength="34" x="172" y="147.0654">Play()</text><line style="stroke:#181818;stroke-width:1.0;" x1="165" x2="207" y1="195.2734" y2="195.2734"/><line style="stroke:#181818;stroke-width:1.0;" x1="207" x2="207" y1="195.2734" y2="208.2734"/><line style="stroke:#181818;stroke-width:1.0;" x1="166" x2="207" y1="208.2734" y2="208.2734"/><polygon fill="#181818" points="176,204.2734,166,208.2734,176,212.2734,172,208.2734" style="stroke:#181818;stroke-width:1.0;"/><text fill="#000000" font-family="sans-serif" font-size="13" lengthAdjust="spacing" textLength="122" x="172" y="190.417">StartCoroutine(Run())</text><polygon fill="#181818" points="389,234.625,399,238.625,389,242.625,393,238.625" style="stroke:#181818;stroke-width:1.0;"/><line style="stroke:#181818;stroke-width:1.0;" x1="165" x2="395" y1="238.625" y2="238.625"/><text fill="#000000" font-family="sans-serif" font-size="13" lengthAdjust="spacing" textLength="124" x="172" y="233.7686">PrepareAssetAsync()</text><polygon fill="#181818" points="551.5,293.3281,561.5,297.3281,551.5,301.3281,555.5,297.3281" style="stroke:#181818;stroke-width:1.0;"/><line style="stroke:#181818;stroke-width:1.0;" x1="165" x2="557.5" y1="297.3281" y2="297.3281"/><text fill="#000000" font-family="sans-serif" font-size="13" lengthAdjust="spacing" textLength="370" x="172" y="292.4717">GetHandLandmarkerOptions(OnHandLandmarkDetectionOutput)</text><path d="M568,276.9766 L568,302.9766 L986,302.9766 L986,286.9766 L976,276.9766 L568,276.9766 " fill="#FEFFDD" style="stroke:#181818;stroke-width:0.5;"/><path d="M976,276.9766 L976,286.9766 L986,286.9766 L976,276.9766 " fill="#FEFFDD" style="stroke:#181818;stroke-width:0.5;"/><text fill="#000000" font-family="sans-serif" font-size="13" lengthAdjust="spacing" textLength="397" x="574" y="295.4717">Specify "OnHandLandmarkDetectionOutput()" as a callback function.</text><polygon fill="#181818" points="176,326.6797,166,330.6797,176,334.6797,172,330.6797" style="stroke:#181818;stroke-width:1.0;"/><line style="stroke:#181818;stroke-width:1.0;stroke-dasharray:2.0,2.0;" x1="170" x2="562.5" y1="330.6797" y2="330.6797"/><text fill="#000000" font-family="sans-serif" font-size="13" lengthAdjust="spacing" textLength="207" x="182" y="325.8232">return new HandLandmarkerOptions</text><polygon fill="#181818" points="728.5,382.3828,738.5,386.3828,728.5,390.3828,732.5,386.3828" style="stroke:#181818;stroke-width:1.0;"/><line style="stroke:#181818;stroke-width:1.0;" x1="165" x2="734.5" y1="386.3828" y2="386.3828"/><text fill="#000000" font-family="sans-serif" font-size="13" lengthAdjust="spacing" textLength="264" x="172" y="381.5264">CreateFromOptions(HandLandmarkerOptions)</text><polygon fill="#181818" points="176,412.7344,166,416.7344,176,420.7344,172,416.7344" style="stroke:#181818;stroke-width:1.0;"/><line style="stroke:#181818;stroke-width:1.0;stroke-dasharray:2.0,2.0;" x1="170" x2="739.5" y1="416.7344" y2="416.7344"/><text fill="#000000" font-family="sans-serif" font-size="13" lengthAdjust="spacing" textLength="162" x="182" y="411.8779">return new HandLandmarker</text><polygon fill="#181818" points="176,468.4375,166,472.4375,176,476.4375,172,472.4375" style="stroke:#181818;stroke-width:1.0;"/><line style="stroke:#181818;stroke-width:1.0;stroke-dasharray:2.0,2.0;" x1="170" x2="948.5" y1="472.4375" y2="472.4375"/><text fill="#000000" font-family="sans-serif" font-size="13" lengthAdjust="spacing" textLength="171" x="182" y="467.5811">Get ImageSource via property</text><polygon fill="#181818" points="1051,524.1406,1061,528.1406,1051,532.1406,1055,528.1406" style="stroke:#181818;stroke-width:1.0;"/><line style="stroke:#181818;stroke-width:1.0;" x1="165" x2="1057" y1="528.1406" y2="528.1406"/><text fill="#000000" font-family="sans-serif" font-size="13" lengthAdjust="spacing" textLength="131" x="172" y="523.2842">Initialize(imageSource)</text><line style="stroke:#181818;stroke-width:1.0;" x1="165" x2="207" y1="558.4922" y2="558.4922"/><line style="stroke:#181818;stroke-width:1.0;" x1="207" x2="207" y1="558.4922" y2="571.4922"/><line style="stroke:#181818;stroke-width:1.0;" x1="166" x2="207" y1="571.4922" y2="571.4922"/><polygon fill="#181818" points="176,567.4922,166,571.4922,176,575.4922,172,571.4922" style="stroke:#181818;stroke-width:1.0;"/><text fill="#000000" font-family="sans-serif" font-size="13" lengthAdjust="spacing" textLength="159" x="172" y="553.6357">SetupAnnotationController()</text><path d="M50,586.4922 L123,586.4922 L123,594.8438 L113,604.8438 L50,604.8438 L50,586.4922 " fill="#EEEEEE" style="stroke:#000000;stroke-width:1.5;"/><rect fill="none" height="971.5156" style="stroke:#000000;stroke-width:1.5;" width="1569" x="50" y="586.4922"/><text fill="#000000" font-family="sans-serif" font-size="13" font-weight="bold" lengthAdjust="spacing" textLength="28" x="65" y="600.9873">loop</text><text fill="#000000" font-family="sans-serif" font-size="11" font-weight="bold" lengthAdjust="spacing" textLength="69" x="138" y="599.9111">[while(true)]</text><path d="M70,611.8438 L131,611.8438 L131,620.1953 L121,630.1953 L70,630.1953 L70,611.8438 " fill="#EEEEEE" style="stroke:#000000;stroke-width:1.5;"/><rect fill="none" height="61.7031" style="stroke:#000000;stroke-width:1.5;" width="277" x="70" y="611.8438"/><text fill="#000000" font-family="sans-serif" font-size="13" font-weight="bold" lengthAdjust="spacing" textLength="16" x="85" y="626.3389">alt</text><text fill="#000000" font-family="sans-serif" font-size="11" font-weight="bold" lengthAdjust="spacing" textLength="59" x="146" y="625.2627">[isPaused]</text><line style="stroke:#181818;stroke-width:1.0;" x1="165" x2="207" y1="652.5469" y2="652.5469"/><line style="stroke:#181818;stroke-width:1.0;" x1="207" x2="207" y1="652.5469" y2="665.5469"/><line style="stroke:#181818;stroke-width:1.0;" x1="166" x2="207" y1="665.5469" y2="665.5469"/><polygon fill="#181818" points="176,661.5469,166,665.5469,176,669.5469,172,665.5469" style="stroke:#181818;stroke-width:1.0;"/><text fill="#000000" font-family="sans-serif" font-size="13" lengthAdjust="spacing" textLength="163" x="172" y="647.6904">yield return new WaitWhile()</text><polygon fill="#181818" points="1138.5,698.8984,1148.5,702.8984,1138.5,706.8984,1142.5,702.8984" style="stroke:#181818;stroke-width:1.0;"/><line style="stroke:#181818;stroke-width:1.0;" x1="165" x2="1144.5" y1="702.8984" y2="702.8984"/><text fill="#000000" font-family="sans-serif" font-size="13" lengthAdjust="spacing" textLength="127" x="172" y="698.042">TryGetTextureFrame()</text><path d="M60,717.8984 L121,717.8984 L121,726.25 L111,736.25 L60,736.25 L60,717.8984 " fill="#EEEEEE" style="stroke:#000000;stroke-width:1.5;"/><rect fill="none" height="169.7578" style="stroke:#000000;stroke-width:1.5;" width="1149.5" x="60" y="717.8984"/><text fill="#000000" font-family="sans-serif" font-size="13" font-weight="bold" lengthAdjust="spacing" textLength="16" x="75" y="732.3936">alt</text><text fill="#000000" font-family="sans-serif" font-size="11" font-weight="bold" lengthAdjust="spacing" textLength="143" x="136" y="731.3174">[Could Get TextureFrame]</text><polygon fill="#181818" points="176,754.6016,166,758.6016,176,762.6016,172,758.6016" style="stroke:#181818;stroke-width:1.0;"/><line style="stroke:#181818;stroke-width:1.0;stroke-dasharray:2.0,2.0;" x1="170" x2="1149.5" y1="758.6016" y2="758.6016"/><text fill="#000000" font-family="sans-serif" font-size="13" lengthAdjust="spacing" textLength="117" x="182" y="753.7451">return TextureFrame</text><line style="stroke:#000000;stroke-width:1.0;stroke-dasharray:2.0,2.0;" x1="60" x2="1209.5" y1="767.6016" y2="767.6016"/><line style="stroke:#181818;stroke-width:1.0;" x1="165" x2="207" y1="790.9531" y2="790.9531"/><line style="stroke:#181818;stroke-width:1.0;" x1="207" x2="207" y1="790.9531" y2="803.9531"/><line style="stroke:#181818;stroke-width:1.0;" x1="166" x2="207" y1="803.9531" y2="803.9531"/><polygon fill="#181818" points="176,799.9531,166,803.9531,176,807.9531,172,803.9531" style="stroke:#181818;stroke-width:1.0;"/><text fill="#000000" font-family="sans-serif" font-size="13" lengthAdjust="spacing" textLength="222" x="172" y="786.0967">yield return new WaitForEndOfFrame()</text><path d="M70,818.9531 L151,818.9531 L151,827.3047 L141,837.3047 L70,837.3047 L70,818.9531 " fill="#EEEEEE" style="stroke:#000000;stroke-width:1.5;"/><rect fill="none" height="61.7031" style="stroke:#000000;stroke-width:1.5;" width="190" x="70" y="818.9531"/><text fill="#000000" font-family="sans-serif" font-size="13" font-weight="bold" lengthAdjust="spacing" textLength="36" x="85" y="833.4482">break</text><line style="stroke:#181818;stroke-width:1.0;" x1="165" x2="207" y1="859.6563" y2="859.6563"/><line style="stroke:#181818;stroke-width:1.0;" x1="207" x2="207" y1="859.6563" y2="872.6563"/><line style="stroke:#181818;stroke-width:1.0;" x1="166" x2="207" y1="872.6563" y2="872.6563"/><polygon fill="#181818" points="176,868.6563,166,872.6563,176,876.6563,172,872.6563" style="stroke:#181818;stroke-width:1.0;"/><text fill="#000000" font-family="sans-serif" font-size="13" lengthAdjust="spacing" textLength="51" x="172" y="854.7998">Continue</text><path d="M70,901.6563 L131,901.6563 L131,910.0078 L121,920.0078 L70,920.0078 L70,901.6563 " fill="#EEEEEE" style="stroke:#000000;stroke-width:1.5;"/><rect fill="none" height="259.6484" style="stroke:#000000;stroke-width:1.5;" width="1139.5" x="70" y="901.6563"/><text fill="#000000" font-family="sans-serif" font-size="13" font-weight="bold" lengthAdjust="spacing" textLength="16" x="85" y="916.1514">alt</text><text fill="#000000" font-family="sans-serif" font-size="11" font-weight="bold" lengthAdjust="spacing" textLength="104" x="146" y="915.0752">[canUseGpuImage]</text><line style="stroke:#181818;stroke-width:1.0;" x1="165" x2="207" y1="942.3594" y2="942.3594"/><line style="stroke:#181818;stroke-width:1.0;" x1="207" x2="207" y1="942.3594" y2="955.3594"/><line style="stroke:#181818;stroke-width:1.0;" x1="166" x2="207" y1="955.3594" y2="955.3594"/><polygon fill="#181818" points="176,951.3594,166,955.3594,176,959.3594,172,955.3594" style="stroke:#181818;stroke-width:1.0;"/><text fill="#000000" font-family="sans-serif" font-size="13" lengthAdjust="spacing" textLength="222" x="172" y="937.5029">yield return new WaitForEndOfFrame()</text><polygon fill="#181818" points="1138.5,981.7109,1148.5,985.7109,1138.5,989.7109,1142.5,985.7109" style="stroke:#181818;stroke-width:1.0;"/><line style="stroke:#181818;stroke-width:1.0;" x1="165" x2="1144.5" y1="985.7109" y2="985.7109"/><text fill="#000000" font-family="sans-serif" font-size="13" lengthAdjust="spacing" textLength="126" x="172" y="980.8545">ReadTextureOnGPU()</text><polygon fill="#181818" points="1138.5,1012.0625,1148.5,1016.0625,1138.5,1020.0625,1142.5,1016.0625" style="stroke:#181818;stroke-width:1.0;"/><line style="stroke:#181818;stroke-width:1.0;" x1="165" x2="1144.5" y1="1016.0625" y2="1016.0625"/><text fill="#000000" font-family="sans-serif" font-size="13" lengthAdjust="spacing" textLength="96" x="172" y="1011.2061">BuildGpuImage()</text><polygon fill="#181818" points="176,1042.4141,166,1046.4141,176,1050.4141,172,1046.4141" style="stroke:#181818;stroke-width:1.0;"/><line style="stroke:#181818;stroke-width:1.0;stroke-dasharray:2.0,2.0;" x1="170" x2="1149.5" y1="1046.4141" y2="1046.4141"/><text fill="#000000" font-family="sans-serif" font-size="13" lengthAdjust="spacing" textLength="72" x="182" y="1041.5576">return Image</text><line style="stroke:#000000;stroke-width:1.0;stroke-dasharray:2.0,2.0;" x1="70" x2="1209.5" y1="1055.4141" y2="1055.4141"/><text fill="#000000" font-family="sans-serif" font-size="11" font-weight="bold" lengthAdjust="spacing" textLength="107" x="75" y="1066.833">[!canUseGpuImage]</text><polygon fill="#181818" points="1138.5,1088.6016,1148.5,1092.6016,1138.5,1096.6016,1142.5,1092.6016" style="stroke:#181818;stroke-width:1.0;"/><line style="stroke:#181818;stroke-width:1.0;" x1="165" x2="1144.5" y1="1092.6016" y2="1092.6016"/><text fill="#000000" font-family="sans-serif" font-size="13" lengthAdjust="spacing" textLength="118" x="172" y="1087.7451">ReadTextureAsync()</text><polygon fill="#181818" points="1138.5,1118.9531,1148.5,1122.9531,1138.5,1126.9531,1142.5,1122.9531" style="stroke:#181818;stroke-width:1.0;"/><line style="stroke:#181818;stroke-width:1.0;" x1="165" x2="1144.5" y1="1122.9531" y2="1122.9531"/><text fill="#000000" font-family="sans-serif" font-size="13" lengthAdjust="spacing" textLength="95" x="172" y="1118.0967">BuildCpuImage()</text><polygon fill="#181818" points="176,1149.3047,166,1153.3047,176,1157.3047,172,1153.3047" style="stroke:#181818;stroke-width:1.0;"/><line style="stroke:#181818;stroke-width:1.0;stroke-dasharray:2.0,2.0;" x1="170" x2="1149.5" y1="1153.3047" y2="1153.3047"/><text fill="#000000" font-family="sans-serif" font-size="13" lengthAdjust="spacing" textLength="72" x="182" y="1148.4482">return Image</text><path d="M70,1175.3047 L131,1175.3047 L131,1183.6563 L121,1193.6563 L70,1193.6563 L70,1175.3047 " fill="#EEEEEE" style="stroke:#000000;stroke-width:1.5;"/><rect fill="none" height="375.7031" style="stroke:#000000;stroke-width:1.5;" width="1539" x="70" y="1175.3047"/><text fill="#000000" font-family="sans-serif" font-size="13" font-weight="bold" lengthAdjust="spacing" textLength="16" x="85" y="1189.7998">alt</text><text fill="#000000" font-family="sans-serif" font-size="11" font-weight="bold" lengthAdjust="spacing" textLength="74" x="146" y="1188.7236">[Live Stream]</text><polygon fill="#181818" points="728.5,1212.0078,738.5,1216.0078,728.5,1220.0078,732.5,1216.0078" style="stroke:#181818;stroke-width:1.0;"/><line style="stroke:#181818;stroke-width:1.0;" x1="165" x2="734.5" y1="1216.0078" y2="1216.0078"/><text fill="#000000" font-family="sans-serif" font-size="13" lengthAdjust="spacing" textLength="118" x="172" y="1211.1514">DetectAsync(Image)</text><line style="stroke:#181818;stroke-width:1.0;" x1="740.5" x2="782.5" y1="1246.3594" y2="1246.3594"/><line style="stroke:#181818;stroke-width:1.0;" x1="782.5" x2="782.5" y1="1246.3594" y2="1259.3594"/><line style="stroke:#181818;stroke-width:1.0;" x1="741.5" x2="782.5" y1="1259.3594" y2="1259.3594"/><polygon fill="#181818" points="751.5,1255.3594,741.5,1259.3594,751.5,1263.3594,747.5,1259.3594" style="stroke:#181818;stroke-width:1.0;"/><text fill="#000000" font-family="sans-serif" font-size="13" lengthAdjust="spacing" textLength="101" x="747.5" y="1241.5029">new PacketMap()</text><line style="stroke:#181818;stroke-width:1.0;" x1="740.5" x2="782.5" y1="1289.7109" y2="1289.7109"/><line style="stroke:#181818;stroke-width:1.0;" x1="782.5" x2="782.5" y1="1289.7109" y2="1302.7109"/><line style="stroke:#181818;stroke-width:1.0;" x1="741.5" x2="782.5" y1="1302.7109" y2="1302.7109"/><polygon fill="#181818" points="751.5,1298.7109,741.5,1302.7109,751.5,1306.7109,747.5,1302.7109" style="stroke:#181818;stroke-width:1.0;"/><text fill="#000000" font-family="sans-serif" font-size="13" lengthAdjust="spacing" textLength="195" x="747.5" y="1284.8545">SendLiveStreamData(PacketMap)</text><polygon fill="#181818" points="1243.5,1329.0625,1253.5,1333.0625,1243.5,1337.0625,1247.5,1333.0625" style="stroke:#181818;stroke-width:1.0;"/><line style="stroke:#181818;stroke-width:1.0;" x1="740.5" x2="1249.5" y1="1333.0625" y2="1333.0625"/><text fill="#000000" font-family="sans-serif" font-size="13" lengthAdjust="spacing" textLength="104" x="747.5" y="1328.2061">Send(PacketMap)</text><polygon fill="#181818" points="1511.5,1359.4141,1521.5,1363.4141,1511.5,1367.4141,1515.5,1363.4141" style="stroke:#181818;stroke-width:1.0;"/><line style="stroke:#181818;stroke-width:1.0;" x1="1255.5" x2="1517.5" y1="1363.4141" y2="1363.4141"/><text fill="#000000" font-family="sans-serif" font-size="13" lengthAdjust="spacing" textLength="244" x="1262.5" y="1358.5576">mp_tasks_core_TaskRunner_Send_Ppm()</text><polygon fill="#181818" points="1266.5,1389.7656,1256.5,1393.7656,1266.5,1397.7656,1262.5,1393.7656" style="stroke:#181818;stroke-width:1.0;"/><line style="stroke:#181818;stroke-width:1.0;stroke-dasharray:2.0,2.0;" x1="1260.5" x2="1522.5" y1="1393.7656" y2="1393.7656"/><text fill="#000000" font-family="sans-serif" font-size="13" lengthAdjust="spacing" textLength="56" x="1272.5" y="1388.9092">Call Back</text><polygon fill="#181818" points="751.5,1420.1172,741.5,1424.1172,751.5,1428.1172,747.5,1424.1172" style="stroke:#181818;stroke-width:1.0;"/><line style="stroke:#181818;stroke-width:1.0;" x1="745.5" x2="1254.5" y1="1424.1172" y2="1424.1172"/><text fill="#000000" font-family="sans-serif" font-size="13" lengthAdjust="spacing" textLength="206" x="757.5" y="1419.2607">OnHandLandmarkDetectionOutput()</text><polygon fill="#181818" points="176,1450.4688,166,1454.4688,176,1458.4688,172,1454.4688" style="stroke:#181818;stroke-width:1.0;"/><line style="stroke:#181818;stroke-width:1.0;" x1="170" x2="739.5" y1="1454.4688" y2="1454.4688"/><text fill="#000000" font-family="sans-serif" font-size="13" lengthAdjust="spacing" textLength="363" x="182" y="1449.6123">_handLandmarkerResultAnnotationController.DrawLater(result);</text><path d="M170,1467.4688 L170,1493.4688 L543,1493.4688 L543,1477.4688 L533,1467.4688 L170,1467.4688 " fill="#FEFFDD" style="stroke:#181818;stroke-width:0.5;"/><path d="M533,1467.4688 L533,1477.4688 L543,1477.4688 L533,1467.4688 " fill="#FEFFDD" style="stroke:#181818;stroke-width:0.5;"/><text fill="#000000" font-family="sans-serif" font-size="13" lengthAdjust="spacing" textLength="352" x="176" y="1485.9639">Drawing process is executed after this, but it is omitted here.</text><line style="stroke:#000000;stroke-width:1.0;stroke-dasharray:2.0,2.0;" x1="70" x2="1609" y1="1499.8203" y2="1499.8203"/><text fill="#000000" font-family="sans-serif" font-size="11" font-weight="bold" lengthAdjust="spacing" textLength="39" x="75" y="1511.2393">[Other]</text><path d="M170,1519.6563 L170,1545.6563 L467,1545.6563 L467,1529.6563 L457,1519.6563 L170,1519.6563 " fill="#FEFFDD" style="stroke:#181818;stroke-width:0.5;"/><path d="M457,1519.6563 L457,1529.6563 L467,1529.6563 L457,1519.6563 " fill="#FEFFDD" style="stroke:#181818;stroke-width:0.5;"/><text fill="#000000" font-family="sans-serif" font-size="13" lengthAdjust="spacing" textLength="276" x="176" y="1538.1514">Description is omitted because this is not used.</text><!--SRC=[jLNRRjf047tdAwPvigN21xHHfOGqQIHIh5oKHpJO0womTwtTMHBwzPqrX9Z41gogIF2mC-VCcGiph3WdkFSwYW4PVg7EHl8jq2x9ohCc2xrUupFqVpJxmpTuOBGSnTs1IOxhDbmRR1jkQApnh3H5LJfnhvNbmZdYaS6i0YUMIhHKFLwujKubVczg2PUzatHS4LFAokYXqJCr5yORudtWk0ns5urr8t3ikVGiKRLX0glc2mv9bPIgsHhE3gAY-0pG0KAAUJx5T0apholxe4N-URz_HBybzbQ3fXTepADJUQeQ3yMVwTgQugqKZSJnYP8hpbQLX-K5hji2v_HWl4qfiMQbDeCWRQjROAKGIcjAihm-ch9BBP4MbbkjM66k_b2atidYNkUPblJA2oqZWTlci3LvJZQCPsvC2IyBbLF4rbCi_r7C6PHBq3lAEWU3jQ8ygvVq6HK_Lm4a7Ea3b4olWfBcOa52zMZNKiZ7scDW2Eg6nakCKEMwzK2RFZ1lrUs3ANVKETt6RA-D_QcpyModkTEGxxX3evJsjArQzHEoJr4_ERefVJLY_qdoYJsw9yosPHphc-If0_JIgpnxooAAEtTlctre6tmvjIRjydSBkulyuR_BV-lgIAr8pezCIj5X7MvMxaPxnVX9I2Cij3sH5KzyXsLq6kP1f0QH6urNo1ZjA1eP7j4jQqj8Ptl-DQluFcc7C_ej2sf5TyGBapa15UM4nSrDKcDfyewO1BP9KXRHFb6eTZFJK6uQN4huJqBF-_j2Zzp8rZv_BjXaiUz9pkVSj8S7LnPVHdBMR6Ghf_Xx_O0t1Uo1V09CwNauBIav9qiRw9LIpvG1peGEUA7SLvXwMUXXfuCf50VhWYmDmkn1YBFz4urv4KxUaSZLqCcDKjMXhPDEAGqtemeQteK8mWqPr1RONm00]--></g></svg>